%TF.GenerationSoftware,KiCad,Pcbnew,7.0.2*%
%TF.CreationDate,2023-12-17T17:40:20-05:00*%
%TF.ProjectId,AntSniffer,416e7453-6e69-4666-9665-722e6b696361,rev?*%
%TF.SameCoordinates,Original*%
%TF.FileFunction,Soldermask,Top*%
%TF.FilePolarity,Negative*%
%FSLAX46Y46*%
G04 Gerber Fmt 4.6, Leading zero omitted, Abs format (unit mm)*
G04 Created by KiCad (PCBNEW 7.0.2) date 2023-12-17 17:40:20*
%MOMM*%
%LPD*%
G01*
G04 APERTURE LIST*
G04 Aperture macros list*
%AMRoundRect*
0 Rectangle with rounded corners*
0 $1 Rounding radius*
0 $2 $3 $4 $5 $6 $7 $8 $9 X,Y pos of 4 corners*
0 Add a 4 corners polygon primitive as box body*
4,1,4,$2,$3,$4,$5,$6,$7,$8,$9,$2,$3,0*
0 Add four circle primitives for the rounded corners*
1,1,$1+$1,$2,$3*
1,1,$1+$1,$4,$5*
1,1,$1+$1,$6,$7*
1,1,$1+$1,$8,$9*
0 Add four rect primitives between the rounded corners*
20,1,$1+$1,$2,$3,$4,$5,0*
20,1,$1+$1,$4,$5,$6,$7,0*
20,1,$1+$1,$6,$7,$8,$9,0*
20,1,$1+$1,$8,$9,$2,$3,0*%
G04 Aperture macros list end*
%ADD10R,2.800000X1.100000*%
%ADD11R,1.900000X3.200000*%
%ADD12RoundRect,0.102000X-0.450000X-0.500000X0.450000X-0.500000X0.450000X0.500000X-0.450000X0.500000X0*%
%ADD13RoundRect,0.102000X-0.850000X-0.275000X0.850000X-0.275000X0.850000X0.275000X-0.850000X0.275000X0*%
%ADD14R,1.700000X1.700000*%
%ADD15O,1.700000X1.700000*%
G04 APERTURE END LIST*
%TO.C,G\u002A\u002A\u002A*%
G36*
X167691022Y-69566685D02*
G01*
X167747743Y-69566930D01*
X167799592Y-69567317D01*
X167845432Y-69567829D01*
X167884129Y-69568451D01*
X167914547Y-69569168D01*
X167935550Y-69569961D01*
X167945999Y-69570817D01*
X167946961Y-69571138D01*
X167946385Y-69577500D01*
X167944211Y-69595260D01*
X167940516Y-69623828D01*
X167935383Y-69662618D01*
X167928893Y-69711044D01*
X167921121Y-69768518D01*
X167912154Y-69834453D01*
X167902070Y-69908264D01*
X167890948Y-69989361D01*
X167878870Y-70077162D01*
X167865914Y-70171076D01*
X167852162Y-70270517D01*
X167837696Y-70374898D01*
X167822593Y-70483633D01*
X167806936Y-70596134D01*
X167791472Y-70707025D01*
X167633556Y-71838375D01*
X167317503Y-71839940D01*
X167247256Y-71840262D01*
X167188160Y-71840458D01*
X167139266Y-71840501D01*
X167099626Y-71840369D01*
X167068289Y-71840038D01*
X167044309Y-71839481D01*
X167026732Y-71838677D01*
X167014613Y-71837597D01*
X167007005Y-71836222D01*
X167002954Y-71834522D01*
X167001514Y-71832476D01*
X167001448Y-71831800D01*
X167002268Y-71825071D01*
X167004658Y-71807078D01*
X167008519Y-71778540D01*
X167013752Y-71740175D01*
X167020256Y-71692705D01*
X167027932Y-71636846D01*
X167036679Y-71573319D01*
X167046399Y-71502844D01*
X167056991Y-71426140D01*
X167068355Y-71343923D01*
X167080391Y-71256918D01*
X167092999Y-71165840D01*
X167106080Y-71071412D01*
X167119535Y-70974350D01*
X167133260Y-70875374D01*
X167147160Y-70775204D01*
X167161132Y-70674560D01*
X167175079Y-70574162D01*
X167188898Y-70474725D01*
X167202490Y-70376973D01*
X167215757Y-70281621D01*
X167228597Y-70189393D01*
X167240912Y-70101006D01*
X167252600Y-70017178D01*
X167263562Y-69938631D01*
X167273698Y-69866083D01*
X167282910Y-69800255D01*
X167291095Y-69741862D01*
X167298156Y-69691628D01*
X167303990Y-69650269D01*
X167308501Y-69618506D01*
X167311586Y-69597059D01*
X167313147Y-69586647D01*
X167313210Y-69586263D01*
X167316597Y-69566600D01*
X167630566Y-69566600D01*
X167691022Y-69566685D01*
G37*
G36*
X174357604Y-69507826D02*
G01*
X174361273Y-69507961D01*
X174399383Y-69510307D01*
X174437047Y-69514270D01*
X174471982Y-69519449D01*
X174501906Y-69525445D01*
X174524538Y-69531860D01*
X174537595Y-69538294D01*
X174538309Y-69538945D01*
X174537227Y-69545147D01*
X174532968Y-69561606D01*
X174525924Y-69587012D01*
X174516487Y-69620063D01*
X174505049Y-69659450D01*
X174492005Y-69703869D01*
X174477745Y-69752014D01*
X174462664Y-69802579D01*
X174447154Y-69854257D01*
X174431607Y-69905743D01*
X174416417Y-69955731D01*
X174401975Y-70002914D01*
X174388675Y-70045988D01*
X174376910Y-70083648D01*
X174367073Y-70114584D01*
X174359554Y-70137494D01*
X174354748Y-70151070D01*
X174353248Y-70154289D01*
X174345906Y-70154828D01*
X174329628Y-70153048D01*
X174307285Y-70149316D01*
X174294723Y-70146827D01*
X174231888Y-70137036D01*
X174173330Y-70134992D01*
X174118631Y-70141074D01*
X174067379Y-70155657D01*
X174019160Y-70179119D01*
X173973560Y-70211837D01*
X173930165Y-70254188D01*
X173888560Y-70306548D01*
X173848335Y-70369297D01*
X173809071Y-70442809D01*
X173770359Y-70527464D01*
X173731782Y-70623632D01*
X173711767Y-70677960D01*
X173680948Y-70763846D01*
X173608004Y-71297463D01*
X173597178Y-71376449D01*
X173586769Y-71452022D01*
X173576897Y-71523315D01*
X173567682Y-71589469D01*
X173559248Y-71649622D01*
X173551715Y-71702912D01*
X173545208Y-71748478D01*
X173539845Y-71785458D01*
X173535750Y-71812991D01*
X173533044Y-71830213D01*
X173531870Y-71836239D01*
X173525533Y-71837095D01*
X173508526Y-71837892D01*
X173482215Y-71838622D01*
X173447970Y-71839283D01*
X173407157Y-71839868D01*
X173361140Y-71840373D01*
X173311292Y-71840792D01*
X173258976Y-71841121D01*
X173205560Y-71841354D01*
X173152413Y-71841485D01*
X173100900Y-71841512D01*
X173052388Y-71841426D01*
X173008247Y-71841224D01*
X172969842Y-71840900D01*
X172938540Y-71840450D01*
X172915711Y-71839868D01*
X172902719Y-71839150D01*
X172900198Y-71838604D01*
X172901018Y-71832421D01*
X172903432Y-71814840D01*
X172907352Y-71786448D01*
X172912699Y-71747831D01*
X172919393Y-71699578D01*
X172927350Y-71642272D01*
X172936489Y-71576502D01*
X172946728Y-71502854D01*
X172957987Y-71421912D01*
X172970182Y-71334268D01*
X172983234Y-71240504D01*
X172997061Y-71141207D01*
X173011581Y-71036965D01*
X173026711Y-70928364D01*
X173042373Y-70815992D01*
X173057498Y-70707488D01*
X173073585Y-70592047D01*
X173089220Y-70479797D01*
X173104321Y-70371323D01*
X173118805Y-70267215D01*
X173132591Y-70168063D01*
X173145598Y-70074454D01*
X173157741Y-69986979D01*
X173168942Y-69906227D01*
X173179118Y-69832784D01*
X173188186Y-69767240D01*
X173196069Y-69710188D01*
X173202679Y-69662212D01*
X173207939Y-69623904D01*
X173211766Y-69595851D01*
X173214077Y-69578643D01*
X173214798Y-69572885D01*
X173220355Y-69571180D01*
X173237130Y-69569750D01*
X173265271Y-69568590D01*
X173304925Y-69567699D01*
X173356243Y-69567075D01*
X173419373Y-69566708D01*
X173487871Y-69566600D01*
X173760946Y-69566600D01*
X173756845Y-69764738D01*
X173752743Y-69962875D01*
X173779430Y-69913831D01*
X173833468Y-69823504D01*
X173891289Y-69744081D01*
X173952726Y-69675708D01*
X174017617Y-69618531D01*
X174085797Y-69572699D01*
X174157103Y-69538356D01*
X174223880Y-69517375D01*
X174248098Y-69512092D01*
X174270081Y-69508734D01*
X174293328Y-69507064D01*
X174321336Y-69506842D01*
X174357604Y-69507826D01*
G37*
G36*
X164031681Y-68809431D02*
G01*
X164153155Y-68824822D01*
X164268347Y-68850539D01*
X164377295Y-68886593D01*
X164480035Y-68933003D01*
X164576605Y-68989779D01*
X164667043Y-69056941D01*
X164751386Y-69134500D01*
X164751887Y-69135009D01*
X164804350Y-69188475D01*
X164633827Y-69361562D01*
X164463306Y-69534649D01*
X164418016Y-69495639D01*
X164344901Y-69438182D01*
X164270638Y-69390530D01*
X164196434Y-69353380D01*
X164127658Y-69328611D01*
X164060715Y-69313305D01*
X163989643Y-69304270D01*
X163918003Y-69301642D01*
X163849353Y-69305555D01*
X163788898Y-69315750D01*
X163727353Y-69335804D01*
X163671260Y-69364851D01*
X163621789Y-69401796D01*
X163580109Y-69445547D01*
X163547390Y-69495008D01*
X163524806Y-69549087D01*
X163519914Y-69567164D01*
X163510723Y-69628877D01*
X163512628Y-69687730D01*
X163525413Y-69742841D01*
X163548858Y-69793325D01*
X163582746Y-69838298D01*
X163588445Y-69844240D01*
X163615009Y-69868636D01*
X163646804Y-69893043D01*
X163684809Y-69918012D01*
X163730003Y-69944093D01*
X163783371Y-69971838D01*
X163845889Y-70001801D01*
X163918543Y-70034531D01*
X163955273Y-70050512D01*
X164038154Y-70087279D01*
X164110878Y-70121906D01*
X164175003Y-70155297D01*
X164232082Y-70188353D01*
X164283671Y-70221977D01*
X164331325Y-70257069D01*
X164376601Y-70294533D01*
X164377599Y-70295407D01*
X164438953Y-70355139D01*
X164490328Y-70418619D01*
X164532231Y-70486925D01*
X164565177Y-70561136D01*
X164589676Y-70642324D01*
X164606241Y-70731572D01*
X164612651Y-70790212D01*
X164615993Y-70898544D01*
X164608016Y-71005791D01*
X164589068Y-71110920D01*
X164559505Y-71212897D01*
X164519675Y-71310688D01*
X164469933Y-71403260D01*
X164410629Y-71489576D01*
X164350717Y-71559643D01*
X164269021Y-71637242D01*
X164179774Y-71705489D01*
X164083297Y-71764224D01*
X163979913Y-71813282D01*
X163869946Y-71852500D01*
X163753718Y-71881713D01*
X163693414Y-71892508D01*
X163666083Y-71896205D01*
X163631690Y-71900014D01*
X163593017Y-71903712D01*
X163552851Y-71907082D01*
X163513978Y-71909901D01*
X163479181Y-71911950D01*
X163451250Y-71913010D01*
X163434973Y-71912964D01*
X163422099Y-71912315D01*
X163400130Y-71911115D01*
X163372050Y-71909529D01*
X163340844Y-71907725D01*
X163338173Y-71907569D01*
X163211304Y-71894666D01*
X163090217Y-71871151D01*
X162974827Y-71837002D01*
X162865047Y-71792186D01*
X162760794Y-71736677D01*
X162708973Y-71703736D01*
X162666003Y-71673185D01*
X162621669Y-71638747D01*
X162578494Y-71602590D01*
X162539000Y-71566878D01*
X162505713Y-71533776D01*
X162488403Y-71514452D01*
X162461434Y-71482318D01*
X162567053Y-71380373D01*
X162602767Y-71345956D01*
X162641349Y-71308870D01*
X162680057Y-71271740D01*
X162716156Y-71237193D01*
X162746911Y-71207851D01*
X162752756Y-71202291D01*
X162832838Y-71126152D01*
X162878494Y-71168791D01*
X162958541Y-71236940D01*
X163040225Y-71293230D01*
X163124024Y-71337850D01*
X163210422Y-71370985D01*
X163299899Y-71392822D01*
X163392935Y-71403547D01*
X163483373Y-71403699D01*
X163554146Y-71397149D01*
X163617459Y-71384412D01*
X163676697Y-71364663D01*
X163715728Y-71347129D01*
X163775111Y-71311483D01*
X163825568Y-71267863D01*
X163866796Y-71216781D01*
X163898490Y-71158755D01*
X163920346Y-71094294D01*
X163932061Y-71023917D01*
X163934098Y-70977472D01*
X163930372Y-70922691D01*
X163919826Y-70868750D01*
X163903410Y-70819828D01*
X163893449Y-70798835D01*
X163872468Y-70766232D01*
X163844213Y-70733909D01*
X163808068Y-70701455D01*
X163763414Y-70668462D01*
X163709631Y-70634515D01*
X163646104Y-70599205D01*
X163572211Y-70562122D01*
X163487336Y-70522855D01*
X163459173Y-70510383D01*
X163349297Y-70459100D01*
X163251134Y-70406617D01*
X163164328Y-70352468D01*
X163088516Y-70296188D01*
X163023338Y-70237311D01*
X162968430Y-70175372D01*
X162923436Y-70109908D01*
X162887990Y-70040451D01*
X162861733Y-69966534D01*
X162844304Y-69887695D01*
X162835340Y-69803468D01*
X162834483Y-69713388D01*
X162834761Y-69705750D01*
X162844682Y-69602493D01*
X162865840Y-69502930D01*
X162897779Y-69407641D01*
X162940045Y-69317201D01*
X162992183Y-69232188D01*
X163053738Y-69153182D01*
X163124254Y-69080758D01*
X163203278Y-69015494D01*
X163290353Y-68957967D01*
X163385027Y-68908756D01*
X163486842Y-68868439D01*
X163496984Y-68865055D01*
X163593592Y-68837778D01*
X163692865Y-68818806D01*
X163797174Y-68807782D01*
X163903887Y-68804351D01*
X164031681Y-68809431D01*
G37*
G36*
X167537687Y-68469783D02*
G01*
X167553177Y-68474535D01*
X167565763Y-68485355D01*
X167577960Y-68501635D01*
X167586357Y-68522633D01*
X167588254Y-68548222D01*
X167583792Y-68573039D01*
X167575665Y-68588831D01*
X167554205Y-68608624D01*
X167529257Y-68619708D01*
X167506091Y-68620861D01*
X167494691Y-68620090D01*
X167485554Y-68623137D01*
X167477269Y-68631714D01*
X167468422Y-68647527D01*
X167457600Y-68672289D01*
X167451816Y-68686538D01*
X167436817Y-68725899D01*
X167426299Y-68759488D01*
X167419591Y-68791116D01*
X167416026Y-68824592D01*
X167414938Y-68863727D01*
X167415262Y-68895050D01*
X167416136Y-68930566D01*
X167417470Y-68957160D01*
X167419743Y-68978011D01*
X167423439Y-68996299D01*
X167429037Y-69015200D01*
X167436777Y-69037225D01*
X167449616Y-69070862D01*
X167462142Y-69100645D01*
X167473491Y-69124765D01*
X167482806Y-69141417D01*
X167489221Y-69148797D01*
X167490088Y-69149002D01*
X167497768Y-69147134D01*
X167513298Y-69142422D01*
X167530250Y-69136902D01*
X167551569Y-69130483D01*
X167570056Y-69126145D01*
X167579504Y-69124950D01*
X167584749Y-69124519D01*
X167588509Y-69122009D01*
X167591123Y-69115609D01*
X167592933Y-69103500D01*
X167594276Y-69083865D01*
X167595494Y-69054890D01*
X167596182Y-69035713D01*
X167597602Y-69001856D01*
X167599331Y-68970310D01*
X167601182Y-68944017D01*
X167602960Y-68925918D01*
X167603495Y-68922275D01*
X167607848Y-68904739D01*
X167615619Y-68880199D01*
X167625530Y-68852092D01*
X167636297Y-68823857D01*
X167646639Y-68798930D01*
X167655274Y-68780751D01*
X167657997Y-68776087D01*
X167663108Y-68765414D01*
X167661846Y-68754705D01*
X167657061Y-68743989D01*
X167650568Y-68718397D01*
X167655947Y-68692125D01*
X167673017Y-68665929D01*
X167688853Y-68651483D01*
X167706822Y-68644305D01*
X167719204Y-68642352D01*
X167750034Y-68643957D01*
X167775246Y-68655070D01*
X167793574Y-68673915D01*
X167803755Y-68698708D01*
X167804523Y-68727670D01*
X167797536Y-68752583D01*
X167785462Y-68771735D01*
X167766916Y-68784113D01*
X167739557Y-68791169D01*
X167734022Y-68791924D01*
X167720325Y-68794023D01*
X167711160Y-68797851D01*
X167704061Y-68805927D01*
X167696559Y-68820771D01*
X167689304Y-68837575D01*
X167675794Y-68871107D01*
X167666004Y-68900651D01*
X167659225Y-68929696D01*
X167654754Y-68961731D01*
X167651878Y-69000246D01*
X167650608Y-69028359D01*
X167647238Y-69116293D01*
X167694906Y-69126054D01*
X167724915Y-69132259D01*
X167745778Y-69136876D01*
X167760214Y-69140687D01*
X167770944Y-69144485D01*
X167780683Y-69149058D01*
X167788484Y-69153204D01*
X167839703Y-69186598D01*
X167884470Y-69227138D01*
X167921651Y-69273179D01*
X167950109Y-69323080D01*
X167968710Y-69375198D01*
X167976194Y-69424768D01*
X167977873Y-69460725D01*
X167926088Y-69462462D01*
X167874302Y-69464197D01*
X167871201Y-69441287D01*
X167866248Y-69422827D01*
X167856972Y-69400672D01*
X167850303Y-69388125D01*
X167836940Y-69368717D01*
X167821141Y-69354066D01*
X167798632Y-69340345D01*
X167794574Y-69338213D01*
X167757817Y-69323217D01*
X167724009Y-69318746D01*
X167690352Y-69324679D01*
X167669931Y-69332777D01*
X167634629Y-69355424D01*
X167608124Y-69386378D01*
X167590440Y-69425607D01*
X167589834Y-69427628D01*
X167579223Y-69463734D01*
X167533848Y-69464206D01*
X167510553Y-69464570D01*
X167491338Y-69465091D01*
X167480003Y-69465664D01*
X167479398Y-69465727D01*
X167470319Y-69465991D01*
X167451585Y-69465998D01*
X167425640Y-69465765D01*
X167394925Y-69465306D01*
X167383355Y-69465092D01*
X167296385Y-69463409D01*
X167300432Y-69431817D01*
X167310625Y-69378420D01*
X167326398Y-69330787D01*
X167344305Y-69295746D01*
X167354886Y-69278155D01*
X167362181Y-69264411D01*
X167364448Y-69258234D01*
X167368848Y-69250222D01*
X167372011Y-69247619D01*
X167379680Y-69240999D01*
X167392912Y-69228150D01*
X167409015Y-69211693D01*
X167411102Y-69209505D01*
X167442629Y-69176375D01*
X167426227Y-69151998D01*
X167417654Y-69136400D01*
X167406897Y-69112662D01*
X167395417Y-69084186D01*
X167385982Y-69058223D01*
X167362141Y-68988825D01*
X167362397Y-68882950D01*
X167362582Y-68844270D01*
X167363134Y-68814992D01*
X167364376Y-68792424D01*
X167366631Y-68773863D01*
X167370219Y-68756620D01*
X167375464Y-68737992D01*
X167382268Y-68716575D01*
X167392955Y-68686234D01*
X167405163Y-68655608D01*
X167416933Y-68629479D01*
X167421943Y-68619771D01*
X167433333Y-68597288D01*
X167439253Y-68578913D01*
X167441199Y-68558861D01*
X167441136Y-68545678D01*
X167441182Y-68524140D01*
X167443531Y-68510196D01*
X167449638Y-68499374D01*
X167459849Y-68488309D01*
X167472519Y-68476983D01*
X167484520Y-68471117D01*
X167500733Y-68468961D01*
X167514735Y-68468728D01*
X167537687Y-68469783D01*
G37*
G36*
X166407457Y-69499740D02*
G01*
X166477212Y-69512925D01*
X166542266Y-69535246D01*
X166601625Y-69566509D01*
X166654291Y-69606521D01*
X166699266Y-69655087D01*
X166702300Y-69659066D01*
X166741924Y-69721455D01*
X166773236Y-69791493D01*
X166795829Y-69867670D01*
X166809293Y-69948474D01*
X166813221Y-70032395D01*
X166812076Y-70065725D01*
X166810817Y-70078845D01*
X166807941Y-70103205D01*
X166803545Y-70138069D01*
X166797733Y-70182702D01*
X166790604Y-70236365D01*
X166782257Y-70298324D01*
X166772797Y-70367842D01*
X166762321Y-70444182D01*
X166750928Y-70526607D01*
X166738723Y-70614379D01*
X166725804Y-70706767D01*
X166712273Y-70803031D01*
X166698228Y-70902435D01*
X166687230Y-70979930D01*
X166672990Y-71080112D01*
X166659224Y-71177007D01*
X166646029Y-71269942D01*
X166633498Y-71358238D01*
X166621731Y-71441221D01*
X166610820Y-71518214D01*
X166600861Y-71588544D01*
X166591951Y-71651532D01*
X166584185Y-71706504D01*
X166577660Y-71752785D01*
X166572469Y-71789697D01*
X166568710Y-71816566D01*
X166566475Y-71832715D01*
X166565848Y-71837518D01*
X166559985Y-71838258D01*
X166543139Y-71838953D01*
X166516424Y-71839588D01*
X166480960Y-71840149D01*
X166437863Y-71840623D01*
X166388250Y-71840996D01*
X166333237Y-71841255D01*
X166273941Y-71841384D01*
X166247551Y-71841400D01*
X165929252Y-71841400D01*
X165932771Y-71821737D01*
X165934776Y-71809223D01*
X165938285Y-71785804D01*
X165943176Y-71752366D01*
X165949324Y-71709796D01*
X165956605Y-71658978D01*
X165964894Y-71600803D01*
X165974069Y-71536155D01*
X165984006Y-71465920D01*
X165994579Y-71390987D01*
X166005666Y-71312242D01*
X166017143Y-71230571D01*
X166028883Y-71146862D01*
X166040767Y-71062000D01*
X166052668Y-70976873D01*
X166064460Y-70892368D01*
X166076023Y-70809372D01*
X166087231Y-70728770D01*
X166097960Y-70651451D01*
X166108088Y-70578302D01*
X166117488Y-70510206D01*
X166126038Y-70448054D01*
X166133612Y-70392728D01*
X166140090Y-70345119D01*
X166145345Y-70306112D01*
X166149252Y-70276594D01*
X166151690Y-70257452D01*
X166152500Y-70250162D01*
X166153263Y-70212637D01*
X166150288Y-70174811D01*
X166144111Y-70140026D01*
X166135266Y-70111620D01*
X166128065Y-70097744D01*
X166103710Y-70071420D01*
X166073649Y-70055278D01*
X166039009Y-70049510D01*
X166000919Y-70054314D01*
X165962228Y-70069017D01*
X165924531Y-70093096D01*
X165884593Y-70128619D01*
X165842706Y-70175197D01*
X165799162Y-70232438D01*
X165754251Y-70299956D01*
X165708269Y-70377361D01*
X165661504Y-70464265D01*
X165652985Y-70480970D01*
X165615133Y-70555775D01*
X165526114Y-71197075D01*
X165437096Y-71838375D01*
X165121198Y-71839940D01*
X165051275Y-71840270D01*
X164992490Y-71840490D01*
X164943878Y-71840571D01*
X164904477Y-71840485D01*
X164873324Y-71840205D01*
X164849456Y-71839699D01*
X164831910Y-71838940D01*
X164819722Y-71837900D01*
X164811929Y-71836551D01*
X164807571Y-71834862D01*
X164805682Y-71832809D01*
X164805298Y-71830588D01*
X164806118Y-71823741D01*
X164808510Y-71805633D01*
X164812374Y-71776979D01*
X164817611Y-71738503D01*
X164824119Y-71690924D01*
X164831801Y-71634959D01*
X164840553Y-71571334D01*
X164850280Y-71500766D01*
X164860877Y-71423974D01*
X164872247Y-71341679D01*
X164884289Y-71254603D01*
X164896904Y-71163464D01*
X164909991Y-71068984D01*
X164923451Y-70971881D01*
X164937182Y-70872876D01*
X164951086Y-70772689D01*
X164965061Y-70672041D01*
X164979010Y-70571655D01*
X164992831Y-70472244D01*
X165006422Y-70374532D01*
X165019688Y-70279239D01*
X165032527Y-70187085D01*
X165044836Y-70098790D01*
X165056516Y-70015075D01*
X165067471Y-69936660D01*
X165077597Y-69864265D01*
X165086796Y-69798609D01*
X165094967Y-69740414D01*
X165102010Y-69690399D01*
X165107826Y-69649283D01*
X165112314Y-69617789D01*
X165115373Y-69596635D01*
X165116905Y-69586540D01*
X165116954Y-69586263D01*
X165120447Y-69566600D01*
X165391415Y-69566600D01*
X165447477Y-69566655D01*
X165499733Y-69566811D01*
X165546956Y-69567056D01*
X165587921Y-69567380D01*
X165621404Y-69567771D01*
X165646178Y-69568219D01*
X165661018Y-69568711D01*
X165664903Y-69569113D01*
X165665438Y-69575627D01*
X165665529Y-69592456D01*
X165665200Y-69617825D01*
X165664481Y-69649960D01*
X165663399Y-69687079D01*
X165662841Y-69703725D01*
X165661523Y-69746203D01*
X165660508Y-69787989D01*
X165659840Y-69826370D01*
X165659564Y-69858631D01*
X165659727Y-69882060D01*
X165659816Y-69885445D01*
X165661373Y-69935064D01*
X165706748Y-69873629D01*
X165765052Y-69800586D01*
X165827333Y-69733491D01*
X165892261Y-69673462D01*
X165958509Y-69621616D01*
X166024742Y-69579071D01*
X166089632Y-69546945D01*
X166101370Y-69542237D01*
X166179960Y-69516940D01*
X166257835Y-69501554D01*
X166333999Y-69495886D01*
X166407457Y-69499740D01*
G37*
G36*
X172113206Y-69497082D02*
G01*
X172214454Y-69506479D01*
X172311992Y-69524767D01*
X172404159Y-69552131D01*
X172414824Y-69556049D01*
X172489269Y-69589779D01*
X172558463Y-69632586D01*
X172621244Y-69683309D01*
X172676450Y-69740791D01*
X172722917Y-69803869D01*
X172759488Y-69871386D01*
X172777826Y-69918390D01*
X172796796Y-69993575D01*
X172806229Y-70073812D01*
X172806309Y-70156953D01*
X172797224Y-70240849D01*
X172779159Y-70323354D01*
X172752300Y-70402317D01*
X172732153Y-70446875D01*
X172694143Y-70513388D01*
X172649256Y-70573734D01*
X172596445Y-70628884D01*
X172534666Y-70679814D01*
X172462883Y-70727493D01*
X172385948Y-70769917D01*
X172266983Y-70824901D01*
X172138257Y-70874023D01*
X172000745Y-70917013D01*
X171855414Y-70953598D01*
X171703239Y-70983503D01*
X171545191Y-71006458D01*
X171540460Y-71007025D01*
X171478448Y-71014421D01*
X171478448Y-71042380D01*
X171480983Y-71092606D01*
X171488089Y-71145194D01*
X171499008Y-71196659D01*
X171512982Y-71243512D01*
X171529255Y-71282268D01*
X171531376Y-71286303D01*
X171550551Y-71314264D01*
X171577210Y-71343333D01*
X171607634Y-71370041D01*
X171638108Y-71390919D01*
X171650209Y-71397199D01*
X171699376Y-71414373D01*
X171756108Y-71425112D01*
X171817659Y-71429307D01*
X171881282Y-71426857D01*
X171944229Y-71417653D01*
X171977573Y-71409676D01*
X172042705Y-71388083D01*
X172112824Y-71358253D01*
X172185397Y-71321428D01*
X172257883Y-71278847D01*
X172296377Y-71253707D01*
X172314312Y-71242018D01*
X172328410Y-71233695D01*
X172335660Y-71230513D01*
X172335702Y-71230515D01*
X172339675Y-71235560D01*
X172348820Y-71249664D01*
X172362289Y-71271384D01*
X172379238Y-71299279D01*
X172398816Y-71331910D01*
X172420182Y-71367836D01*
X172442484Y-71405619D01*
X172464879Y-71443813D01*
X172486518Y-71480983D01*
X172506558Y-71515686D01*
X172524149Y-71546482D01*
X172538446Y-71571930D01*
X172548601Y-71590592D01*
X172553769Y-71601023D01*
X172554215Y-71602308D01*
X172550334Y-71610486D01*
X172537211Y-71623471D01*
X172516255Y-71640334D01*
X172488879Y-71660147D01*
X172456495Y-71681984D01*
X172420517Y-71704918D01*
X172382354Y-71728023D01*
X172343418Y-71750367D01*
X172305123Y-71771027D01*
X172272367Y-71787415D01*
X172210181Y-71814495D01*
X172140777Y-71840181D01*
X172069033Y-71862850D01*
X171999829Y-71880884D01*
X171974548Y-71886318D01*
X171943950Y-71891666D01*
X171906687Y-71896991D01*
X171865599Y-71902008D01*
X171823519Y-71906433D01*
X171783286Y-71909979D01*
X171747739Y-71912362D01*
X171719713Y-71913294D01*
X171708348Y-71913078D01*
X171696420Y-71912335D01*
X171675489Y-71910926D01*
X171648618Y-71909058D01*
X171621951Y-71907165D01*
X171515140Y-71894334D01*
X171415099Y-71871793D01*
X171322112Y-71839776D01*
X171236466Y-71798515D01*
X171158442Y-71748246D01*
X171088326Y-71689200D01*
X171026401Y-71621613D01*
X170972954Y-71545720D01*
X170928266Y-71461751D01*
X170892623Y-71369942D01*
X170870386Y-71289157D01*
X170857236Y-71217205D01*
X170848284Y-71136144D01*
X170843520Y-71048210D01*
X170842932Y-70955637D01*
X170846507Y-70860659D01*
X170854236Y-70765512D01*
X170866104Y-70672428D01*
X170873891Y-70625677D01*
X170879346Y-70599749D01*
X171516014Y-70599749D01*
X171516459Y-70607714D01*
X171521057Y-70611972D01*
X171531682Y-70613060D01*
X171550206Y-70611517D01*
X171578500Y-70607883D01*
X171585396Y-70606965D01*
X171690244Y-70589426D01*
X171784651Y-70565993D01*
X171868788Y-70536590D01*
X171942825Y-70501140D01*
X172006932Y-70459565D01*
X172061277Y-70411791D01*
X172090312Y-70378812D01*
X172129263Y-70322588D01*
X172156713Y-70265795D01*
X172173213Y-70206804D01*
X172179318Y-70143985D01*
X172178959Y-70117150D01*
X172173357Y-70066180D01*
X172160890Y-70024486D01*
X172141013Y-69991034D01*
X172113183Y-69964781D01*
X172092523Y-69952093D01*
X172071155Y-69944700D01*
X172041357Y-69939433D01*
X172006642Y-69936506D01*
X171970526Y-69936133D01*
X171936526Y-69938529D01*
X171918104Y-69941487D01*
X171880589Y-69952861D01*
X171840073Y-69971076D01*
X171801336Y-69993712D01*
X171772949Y-70014992D01*
X171739541Y-70049000D01*
X171705495Y-70093341D01*
X171671806Y-70146354D01*
X171639462Y-70206382D01*
X171609462Y-70271770D01*
X171590539Y-70319432D01*
X171580722Y-70348034D01*
X171569397Y-70384602D01*
X171557393Y-70426066D01*
X171545546Y-70469354D01*
X171534688Y-70511398D01*
X171525651Y-70549127D01*
X171519266Y-70579469D01*
X171517851Y-70587537D01*
X171516014Y-70599749D01*
X170879346Y-70599749D01*
X170896732Y-70517125D01*
X170925369Y-70410397D01*
X170959050Y-70307645D01*
X170997027Y-70211015D01*
X171038550Y-70122654D01*
X171068514Y-70068242D01*
X171126224Y-69979228D01*
X171191620Y-69894105D01*
X171262943Y-69814779D01*
X171338436Y-69743161D01*
X171416343Y-69681161D01*
X171439961Y-69664697D01*
X171520719Y-69617039D01*
X171609384Y-69576977D01*
X171704294Y-69544696D01*
X171803790Y-69520382D01*
X171906214Y-69504217D01*
X172009906Y-69496390D01*
X172113206Y-69497082D01*
G37*
G36*
X169462069Y-68601680D02*
G01*
X169494970Y-68604417D01*
X169568804Y-68615621D01*
X169644871Y-68632812D01*
X169717680Y-68654639D01*
X169754960Y-68668376D01*
X169785813Y-68681710D01*
X169820695Y-68698472D01*
X169856668Y-68717081D01*
X169890800Y-68735963D01*
X169920157Y-68753535D01*
X169941804Y-68768224D01*
X169944480Y-68770298D01*
X169961207Y-68783637D01*
X169851344Y-68967907D01*
X169825754Y-69010747D01*
X169802032Y-69050308D01*
X169780910Y-69085376D01*
X169763119Y-69114747D01*
X169749389Y-69137213D01*
X169740453Y-69151567D01*
X169737115Y-69156550D01*
X169730208Y-69155865D01*
X169715090Y-69150520D01*
X169694260Y-69141478D01*
X169678433Y-69133874D01*
X169646592Y-69119667D01*
X169609475Y-69105574D01*
X169573679Y-69094043D01*
X169563623Y-69091304D01*
X169535192Y-69084457D01*
X169511348Y-69080130D01*
X169487869Y-69077912D01*
X169460523Y-69077394D01*
X169427498Y-69078090D01*
X169381003Y-69080773D01*
X169343687Y-69086291D01*
X169312772Y-69095599D01*
X169285484Y-69109652D01*
X169259045Y-69129407D01*
X169246765Y-69140335D01*
X169210838Y-69181671D01*
X169181269Y-69233229D01*
X169158108Y-69294909D01*
X169143566Y-69354850D01*
X169140659Y-69371290D01*
X169136755Y-69395239D01*
X169132227Y-69424178D01*
X169127449Y-69455583D01*
X169122800Y-69486934D01*
X169118652Y-69515711D01*
X169115381Y-69539392D01*
X169113363Y-69555454D01*
X169112898Y-69560883D01*
X169118852Y-69562094D01*
X169136341Y-69563181D01*
X169164799Y-69564134D01*
X169203660Y-69564945D01*
X169252356Y-69565605D01*
X169310324Y-69566104D01*
X169376998Y-69566437D01*
X169451812Y-69566591D01*
X169478248Y-69566600D01*
X169843600Y-69566600D01*
X169847078Y-69546938D01*
X169849081Y-69534147D01*
X169852286Y-69511998D01*
X169856319Y-69483129D01*
X169860813Y-69450183D01*
X169863047Y-69433500D01*
X169868194Y-69396316D01*
X169873710Y-69358847D01*
X169879033Y-69324792D01*
X169883596Y-69297856D01*
X169884806Y-69291325D01*
X169910055Y-69189479D01*
X169945639Y-69092916D01*
X169991177Y-69002374D01*
X170046287Y-68918589D01*
X170110592Y-68842294D01*
X170123505Y-68829023D01*
X170191112Y-68768765D01*
X170265019Y-68717803D01*
X170345917Y-68675789D01*
X170434502Y-68642372D01*
X170531469Y-68617204D01*
X170554396Y-68612664D01*
X170588590Y-68607912D01*
X170631658Y-68604461D01*
X170680735Y-68602310D01*
X170732959Y-68601460D01*
X170785466Y-68601911D01*
X170835394Y-68603665D01*
X170879878Y-68606718D01*
X170916056Y-68611074D01*
X170924873Y-68612639D01*
X171023832Y-68636163D01*
X171113347Y-68666226D01*
X171145221Y-68679486D01*
X171174483Y-68693162D01*
X171205963Y-68709204D01*
X171237364Y-68726294D01*
X171266387Y-68743110D01*
X171290734Y-68758333D01*
X171308106Y-68770645D01*
X171315017Y-68776981D01*
X171316214Y-68780856D01*
X171314968Y-68787726D01*
X171310762Y-68798568D01*
X171303083Y-68814362D01*
X171291411Y-68836087D01*
X171275232Y-68864726D01*
X171254029Y-68901256D01*
X171227285Y-68946656D01*
X171212157Y-68972175D01*
X171186635Y-69015139D01*
X171163080Y-69054731D01*
X171142201Y-69089768D01*
X171124704Y-69119064D01*
X171111298Y-69141435D01*
X171102691Y-69155693D01*
X171099611Y-69160639D01*
X171093659Y-69159242D01*
X171080063Y-69153263D01*
X171061760Y-69143995D01*
X171061639Y-69143931D01*
X170987556Y-69110247D01*
X170913319Y-69088303D01*
X170837716Y-69077785D01*
X170801964Y-69076699D01*
X170748710Y-69079133D01*
X170704387Y-69086696D01*
X170666617Y-69100222D01*
X170633021Y-69120549D01*
X170603286Y-69146432D01*
X170578313Y-69174941D01*
X170557072Y-69207677D01*
X170538996Y-69246131D01*
X170523518Y-69291790D01*
X170510068Y-69346137D01*
X170498084Y-69410667D01*
X170494955Y-69430475D01*
X170489678Y-69464897D01*
X170484800Y-69496512D01*
X170480719Y-69522756D01*
X170477834Y-69541060D01*
X170476879Y-69546938D01*
X170473598Y-69566600D01*
X170716377Y-69566600D01*
X170779217Y-69566673D01*
X170830864Y-69566912D01*
X170872225Y-69567344D01*
X170904204Y-69567999D01*
X170927708Y-69568904D01*
X170943644Y-69570089D01*
X170952916Y-69571581D01*
X170956433Y-69573411D01*
X170956460Y-69574163D01*
X170954163Y-69581491D01*
X170948789Y-69599088D01*
X170940736Y-69625634D01*
X170930400Y-69659811D01*
X170918186Y-69700298D01*
X170904488Y-69745774D01*
X170889708Y-69794920D01*
X170887893Y-69800959D01*
X170822023Y-70020192D01*
X170618520Y-70020271D01*
X170415020Y-70020350D01*
X170411297Y-70046063D01*
X170410027Y-70055159D01*
X170407220Y-70075507D01*
X170402979Y-70106366D01*
X170397399Y-70147001D01*
X170390586Y-70196675D01*
X170382640Y-70254648D01*
X170373660Y-70320184D01*
X170363750Y-70392545D01*
X170353010Y-70470995D01*
X170341541Y-70554793D01*
X170329445Y-70643201D01*
X170316820Y-70735486D01*
X170303771Y-70830908D01*
X170301682Y-70846175D01*
X170288372Y-70943303D01*
X170275308Y-71038232D01*
X170262604Y-71130149D01*
X170250375Y-71218241D01*
X170238734Y-71301694D01*
X170227799Y-71379695D01*
X170217683Y-71451434D01*
X170208500Y-71516095D01*
X170200365Y-71572866D01*
X170193393Y-71620933D01*
X170187699Y-71659485D01*
X170183398Y-71687710D01*
X170180603Y-71704792D01*
X170180515Y-71705275D01*
X170153670Y-71831296D01*
X170120165Y-71947723D01*
X170079636Y-72055296D01*
X170031721Y-72154754D01*
X169976055Y-72246838D01*
X169912273Y-72332286D01*
X169840013Y-72411835D01*
X169825940Y-72425718D01*
X169772151Y-72474679D01*
X169714844Y-72520199D01*
X169652152Y-72563524D01*
X169582202Y-72605908D01*
X169503127Y-72648599D01*
X169460773Y-72669868D01*
X169426932Y-72686154D01*
X169390264Y-72703204D01*
X169352570Y-72720243D01*
X169315652Y-72736495D01*
X169281313Y-72751184D01*
X169251356Y-72763536D01*
X169227582Y-72772774D01*
X169211796Y-72778124D01*
X169206714Y-72779150D01*
X169202510Y-72773393D01*
X169194882Y-72756273D01*
X169183914Y-72728004D01*
X169169681Y-72688802D01*
X169152267Y-72638886D01*
X169131752Y-72578471D01*
X169121845Y-72548870D01*
X169105172Y-72498653D01*
X169089851Y-72452121D01*
X169076275Y-72410501D01*
X169064840Y-72375016D01*
X169055935Y-72346892D01*
X169049957Y-72327352D01*
X169047299Y-72317621D01*
X169047229Y-72316757D01*
X169053293Y-72313578D01*
X169067834Y-72306531D01*
X169088349Y-72296825D01*
X169101979Y-72290458D01*
X169155444Y-72263750D01*
X169209130Y-72233579D01*
X169259396Y-72202132D01*
X169302599Y-72171593D01*
X169311266Y-72164839D01*
X169365536Y-72113986D01*
X169413737Y-72052829D01*
X169455749Y-71981603D01*
X169491454Y-71900538D01*
X169520730Y-71809870D01*
X169542417Y-71715379D01*
X169544348Y-71703643D01*
X169547778Y-71681040D01*
X169552590Y-71648411D01*
X169558665Y-71606594D01*
X169565886Y-71556428D01*
X169574135Y-71498754D01*
X169583297Y-71434408D01*
X169593252Y-71364233D01*
X169603886Y-71289066D01*
X169615077Y-71209749D01*
X169626712Y-71127118D01*
X169638670Y-71042015D01*
X169650836Y-70955277D01*
X169663091Y-70867746D01*
X169675320Y-70780259D01*
X169687402Y-70693657D01*
X169699223Y-70608778D01*
X169710664Y-70526465D01*
X169721607Y-70447552D01*
X169731937Y-70372881D01*
X169741533Y-70303291D01*
X169750280Y-70239621D01*
X169758062Y-70182712D01*
X169764758Y-70133401D01*
X169770254Y-70092529D01*
X169774430Y-70060934D01*
X169777170Y-70039459D01*
X169778356Y-70028937D01*
X169778398Y-70028177D01*
X169776011Y-70025623D01*
X169768056Y-70023656D01*
X169753338Y-70022212D01*
X169730663Y-70021228D01*
X169698833Y-70020638D01*
X169656656Y-70020378D01*
X169633198Y-70020350D01*
X169587508Y-70020295D01*
X169552509Y-70020058D01*
X169526793Y-70019538D01*
X169508950Y-70018630D01*
X169497571Y-70017234D01*
X169491247Y-70015246D01*
X169488568Y-70012564D01*
X169488104Y-70009763D01*
X169489041Y-69999381D01*
X169491465Y-69980304D01*
X169494946Y-69955779D01*
X169497073Y-69941700D01*
X169501616Y-69910504D01*
X169504458Y-69887231D01*
X169505508Y-69872976D01*
X169504668Y-69868833D01*
X169503051Y-69872125D01*
X169500534Y-69879975D01*
X169495248Y-69896928D01*
X169487955Y-69920518D01*
X169479423Y-69948276D01*
X169479121Y-69949263D01*
X169457330Y-70020350D01*
X169255344Y-70020350D01*
X169053358Y-70020350D01*
X169049994Y-70036988D01*
X169048776Y-70044917D01*
X169046022Y-70064119D01*
X169041827Y-70093879D01*
X169036292Y-70133482D01*
X169029514Y-70182212D01*
X169021596Y-70239356D01*
X169012633Y-70304197D01*
X169002725Y-70376018D01*
X168991971Y-70454108D01*
X168980469Y-70537749D01*
X168968319Y-70626223D01*
X168955618Y-70718820D01*
X168942467Y-70814825D01*
X168937498Y-70851130D01*
X168920827Y-70972844D01*
X168905665Y-71083234D01*
X168891911Y-71182968D01*
X168879461Y-71272714D01*
X168868214Y-71353137D01*
X168858064Y-71424908D01*
X168848909Y-71488692D01*
X168840648Y-71545160D01*
X168833175Y-71594976D01*
X168826389Y-71638813D01*
X168820189Y-71677332D01*
X168814469Y-71711207D01*
X168809127Y-71741100D01*
X168804060Y-71767683D01*
X168799165Y-71791623D01*
X168794342Y-71813587D01*
X168789483Y-71834243D01*
X168784488Y-71854259D01*
X168780626Y-71869116D01*
X168745094Y-71982894D01*
X168700140Y-72091100D01*
X168646291Y-72192925D01*
X168584063Y-72287565D01*
X168513982Y-72374207D01*
X168436569Y-72452047D01*
X168366892Y-72509564D01*
X168316142Y-72545063D01*
X168255949Y-72582738D01*
X168188494Y-72621418D01*
X168115962Y-72659930D01*
X168040535Y-72697105D01*
X167964396Y-72731768D01*
X167910809Y-72754332D01*
X167837045Y-72784261D01*
X167761071Y-72556341D01*
X167744399Y-72506175D01*
X167728993Y-72459521D01*
X167715260Y-72417644D01*
X167703611Y-72381806D01*
X167694458Y-72353271D01*
X167688208Y-72333302D01*
X167685272Y-72323159D01*
X167685098Y-72322221D01*
X167690239Y-72317431D01*
X167704328Y-72308630D01*
X167725369Y-72296960D01*
X167751368Y-72283568D01*
X167758846Y-72279871D01*
X167840132Y-72236568D01*
X167910628Y-72191129D01*
X167971266Y-72142339D01*
X168022971Y-72088980D01*
X168066675Y-72029839D01*
X168103306Y-71963703D01*
X168133796Y-71889354D01*
X168159072Y-71805578D01*
X168175230Y-71735525D01*
X168177575Y-71722179D01*
X168181459Y-71697612D01*
X168186773Y-71662584D01*
X168193407Y-71617861D01*
X168201254Y-71564205D01*
X168210200Y-71502380D01*
X168220140Y-71433151D01*
X168230960Y-71357280D01*
X168242553Y-71275531D01*
X168254810Y-71188667D01*
X168267622Y-71097453D01*
X168280877Y-71002653D01*
X168294467Y-70905030D01*
X168299278Y-70870375D01*
X168312821Y-70772742D01*
X168325949Y-70678172D01*
X168338558Y-70587380D01*
X168350552Y-70501087D01*
X168361826Y-70420008D01*
X168372285Y-70344864D01*
X168381824Y-70276371D01*
X168390347Y-70215251D01*
X168397751Y-70162221D01*
X168403939Y-70118000D01*
X168408807Y-70083305D01*
X168412257Y-70058856D01*
X168414189Y-70045370D01*
X168414526Y-70043145D01*
X168418176Y-70020565D01*
X168270571Y-70018945D01*
X168122966Y-70017325D01*
X168154847Y-69793475D01*
X168162043Y-69742951D01*
X168168686Y-69696334D01*
X168174585Y-69654950D01*
X168179552Y-69620122D01*
X168183398Y-69593172D01*
X168185935Y-69575426D01*
X168186975Y-69568205D01*
X168186988Y-69568113D01*
X168192839Y-69567695D01*
X168209144Y-69567320D01*
X168234257Y-69567007D01*
X168266533Y-69566773D01*
X168304326Y-69566633D01*
X168334478Y-69566600D01*
X168481707Y-69566600D01*
X168500842Y-69428158D01*
X168514022Y-69341770D01*
X168528526Y-69265642D01*
X168544977Y-69197945D01*
X168564006Y-69136861D01*
X168586237Y-69080564D01*
X168612302Y-69027234D01*
X168642826Y-68975046D01*
X168671955Y-68931350D01*
X168697996Y-68897721D01*
X168730951Y-68860488D01*
X168767757Y-68822732D01*
X168805350Y-68787532D01*
X168840666Y-68757970D01*
X168854762Y-68747496D01*
X168923272Y-68705155D01*
X169000013Y-68668573D01*
X169082008Y-68638953D01*
X169166276Y-68617501D01*
X169185498Y-68613878D01*
X169233311Y-68607325D01*
X169288983Y-68602705D01*
X169348405Y-68600139D01*
X169407470Y-68599755D01*
X169462069Y-68601680D01*
G37*
%TD*%
D10*
%TO.C,CN1*%
X152577800Y-45580800D03*
X156687800Y-45580800D03*
X152577800Y-47580800D03*
X156687800Y-47580800D03*
X152577800Y-49580800D03*
X156687800Y-49580800D03*
X152577800Y-51580800D03*
X156687800Y-51580800D03*
X152577800Y-53580800D03*
X156687800Y-53580800D03*
X152577800Y-55580800D03*
X156687800Y-55580800D03*
X152577800Y-57580800D03*
X156687800Y-57580800D03*
X152577800Y-59580800D03*
X156687800Y-59580800D03*
X152577800Y-61580800D03*
X156687800Y-61580800D03*
D11*
X146827800Y-65360800D03*
X146827800Y-41800800D03*
%TD*%
D12*
%TO.C,S1*%
X158768000Y-69710400D03*
X158768000Y-71310400D03*
X154668000Y-71310400D03*
X154668000Y-69710400D03*
D13*
X156718000Y-69085400D03*
%TD*%
D12*
%TO.C,S2*%
X182212200Y-69785400D03*
X182212200Y-71385400D03*
X178112200Y-71385400D03*
X178112200Y-69785400D03*
D13*
X180162200Y-69160400D03*
%TD*%
D10*
%TO.C,CN2*%
X184222900Y-61568600D03*
X180112900Y-61568600D03*
X184222900Y-59568600D03*
X180112900Y-59568600D03*
X184222900Y-57568600D03*
X180112900Y-57568600D03*
X184222900Y-55568600D03*
X180112900Y-55568600D03*
X184222900Y-53568600D03*
X180112900Y-53568600D03*
X184222900Y-51568600D03*
X180112900Y-51568600D03*
X184222900Y-49568600D03*
X180112900Y-49568600D03*
X184222900Y-47568600D03*
X180112900Y-47568600D03*
X184222900Y-45568600D03*
X180112900Y-45568600D03*
D11*
X189972900Y-41788600D03*
X189972900Y-65348600D03*
%TD*%
D14*
%TO.C,J1*%
X168173400Y-66395600D03*
D15*
X168173400Y-63855600D03*
X168173400Y-61315600D03*
X168173400Y-58775600D03*
X168173400Y-56235600D03*
X168173400Y-53695600D03*
X168173400Y-51155600D03*
X168173400Y-48615600D03*
X168173400Y-46075600D03*
X168173400Y-43535600D03*
X168173400Y-40995600D03*
%TD*%
M02*
