%TF.GenerationSoftware,KiCad,Pcbnew,7.0.2*%
%TF.CreationDate,2023-12-17T17:40:19-05:00*%
%TF.ProjectId,AntSniffer,416e7453-6e69-4666-9665-722e6b696361,rev?*%
%TF.SameCoordinates,Original*%
%TF.FileFunction,Copper,L1,Top*%
%TF.FilePolarity,Positive*%
%FSLAX46Y46*%
G04 Gerber Fmt 4.6, Leading zero omitted, Abs format (unit mm)*
G04 Created by KiCad (PCBNEW 7.0.2) date 2023-12-17 17:40:19*
%MOMM*%
%LPD*%
G01*
G04 APERTURE LIST*
%TA.AperFunction,SMDPad,CuDef*%
%ADD10R,2.800000X1.100000*%
%TD*%
%TA.AperFunction,SMDPad,CuDef*%
%ADD11R,1.900000X3.200000*%
%TD*%
%TA.AperFunction,SMDPad,CuDef*%
%ADD12R,0.900000X1.000000*%
%TD*%
%TA.AperFunction,SMDPad,CuDef*%
%ADD13R,1.700000X0.550000*%
%TD*%
%TA.AperFunction,ComponentPad*%
%ADD14R,1.700000X1.700000*%
%TD*%
%TA.AperFunction,ComponentPad*%
%ADD15O,1.700000X1.700000*%
%TD*%
%TA.AperFunction,ViaPad*%
%ADD16C,0.800000*%
%TD*%
%TA.AperFunction,Conductor*%
%ADD17C,0.750000*%
%TD*%
%TA.AperFunction,Conductor*%
%ADD18C,0.250000*%
%TD*%
G04 APERTURE END LIST*
%TA.AperFunction,EtchedComponent*%
%TO.C,G\u002A\u002A\u002A*%
G36*
X167692774Y-69570285D02*
G01*
X167749495Y-69570530D01*
X167801344Y-69570917D01*
X167847184Y-69571429D01*
X167885881Y-69572051D01*
X167916299Y-69572768D01*
X167937302Y-69573561D01*
X167947751Y-69574417D01*
X167948713Y-69574738D01*
X167948137Y-69581100D01*
X167945963Y-69598860D01*
X167942268Y-69627428D01*
X167937135Y-69666218D01*
X167930645Y-69714644D01*
X167922873Y-69772118D01*
X167913906Y-69838053D01*
X167903822Y-69911864D01*
X167892700Y-69992961D01*
X167880622Y-70080762D01*
X167867666Y-70174676D01*
X167853914Y-70274117D01*
X167839448Y-70378498D01*
X167824345Y-70487233D01*
X167808688Y-70599734D01*
X167793224Y-70710625D01*
X167635308Y-71841975D01*
X167319255Y-71843540D01*
X167249008Y-71843862D01*
X167189912Y-71844058D01*
X167141018Y-71844101D01*
X167101378Y-71843969D01*
X167070041Y-71843638D01*
X167046061Y-71843081D01*
X167028484Y-71842277D01*
X167016365Y-71841197D01*
X167008757Y-71839822D01*
X167004706Y-71838122D01*
X167003266Y-71836076D01*
X167003200Y-71835400D01*
X167004020Y-71828671D01*
X167006410Y-71810678D01*
X167010271Y-71782140D01*
X167015504Y-71743775D01*
X167022008Y-71696305D01*
X167029684Y-71640446D01*
X167038431Y-71576919D01*
X167048151Y-71506444D01*
X167058743Y-71429740D01*
X167070107Y-71347523D01*
X167082143Y-71260518D01*
X167094751Y-71169440D01*
X167107832Y-71075012D01*
X167121287Y-70977950D01*
X167135012Y-70878974D01*
X167148912Y-70778804D01*
X167162884Y-70678160D01*
X167176831Y-70577762D01*
X167190650Y-70478325D01*
X167204242Y-70380573D01*
X167217509Y-70285221D01*
X167230349Y-70192993D01*
X167242664Y-70104606D01*
X167254352Y-70020778D01*
X167265314Y-69942231D01*
X167275450Y-69869683D01*
X167284662Y-69803855D01*
X167292847Y-69745462D01*
X167299908Y-69695228D01*
X167305742Y-69653869D01*
X167310253Y-69622106D01*
X167313338Y-69600659D01*
X167314899Y-69590247D01*
X167314962Y-69589863D01*
X167318349Y-69570200D01*
X167632318Y-69570200D01*
X167692774Y-69570285D01*
G37*
%TD.AperFunction*%
%TA.AperFunction,EtchedComponent*%
G36*
X174359356Y-69511426D02*
G01*
X174363025Y-69511561D01*
X174401135Y-69513907D01*
X174438799Y-69517870D01*
X174473734Y-69523049D01*
X174503658Y-69529045D01*
X174526290Y-69535460D01*
X174539347Y-69541894D01*
X174540061Y-69542545D01*
X174538979Y-69548747D01*
X174534720Y-69565206D01*
X174527676Y-69590612D01*
X174518239Y-69623663D01*
X174506801Y-69663050D01*
X174493757Y-69707469D01*
X174479497Y-69755614D01*
X174464416Y-69806179D01*
X174448906Y-69857857D01*
X174433359Y-69909343D01*
X174418169Y-69959331D01*
X174403727Y-70006514D01*
X174390427Y-70049588D01*
X174378662Y-70087248D01*
X174368825Y-70118184D01*
X174361306Y-70141094D01*
X174356500Y-70154670D01*
X174355000Y-70157889D01*
X174347658Y-70158428D01*
X174331380Y-70156648D01*
X174309037Y-70152916D01*
X174296475Y-70150427D01*
X174233640Y-70140636D01*
X174175082Y-70138592D01*
X174120383Y-70144674D01*
X174069131Y-70159257D01*
X174020912Y-70182719D01*
X173975312Y-70215437D01*
X173931917Y-70257788D01*
X173890312Y-70310148D01*
X173850087Y-70372897D01*
X173810823Y-70446409D01*
X173772111Y-70531064D01*
X173733534Y-70627232D01*
X173713519Y-70681560D01*
X173682700Y-70767446D01*
X173609756Y-71301063D01*
X173598930Y-71380049D01*
X173588521Y-71455622D01*
X173578649Y-71526915D01*
X173569434Y-71593069D01*
X173561000Y-71653222D01*
X173553467Y-71706512D01*
X173546960Y-71752078D01*
X173541597Y-71789058D01*
X173537502Y-71816591D01*
X173534796Y-71833813D01*
X173533622Y-71839839D01*
X173527285Y-71840695D01*
X173510278Y-71841492D01*
X173483967Y-71842222D01*
X173449722Y-71842883D01*
X173408909Y-71843468D01*
X173362892Y-71843973D01*
X173313044Y-71844392D01*
X173260728Y-71844721D01*
X173207312Y-71844954D01*
X173154165Y-71845085D01*
X173102652Y-71845112D01*
X173054140Y-71845026D01*
X173009999Y-71844824D01*
X172971594Y-71844500D01*
X172940292Y-71844050D01*
X172917463Y-71843468D01*
X172904471Y-71842750D01*
X172901950Y-71842204D01*
X172902770Y-71836021D01*
X172905184Y-71818440D01*
X172909104Y-71790048D01*
X172914451Y-71751431D01*
X172921145Y-71703178D01*
X172929102Y-71645872D01*
X172938241Y-71580102D01*
X172948480Y-71506454D01*
X172959739Y-71425512D01*
X172971934Y-71337868D01*
X172984986Y-71244104D01*
X172998813Y-71144807D01*
X173013333Y-71040565D01*
X173028463Y-70931964D01*
X173044125Y-70819592D01*
X173059250Y-70711088D01*
X173075337Y-70595647D01*
X173090972Y-70483397D01*
X173106073Y-70374923D01*
X173120557Y-70270815D01*
X173134343Y-70171663D01*
X173147350Y-70078054D01*
X173159493Y-69990579D01*
X173170694Y-69909827D01*
X173180870Y-69836384D01*
X173189938Y-69770840D01*
X173197821Y-69713788D01*
X173204431Y-69665812D01*
X173209691Y-69627504D01*
X173213518Y-69599451D01*
X173215829Y-69582243D01*
X173216550Y-69576485D01*
X173222107Y-69574780D01*
X173238882Y-69573350D01*
X173267023Y-69572190D01*
X173306677Y-69571299D01*
X173357995Y-69570675D01*
X173421125Y-69570308D01*
X173489623Y-69570200D01*
X173762698Y-69570200D01*
X173758597Y-69768338D01*
X173754495Y-69966475D01*
X173781182Y-69917431D01*
X173835220Y-69827104D01*
X173893041Y-69747681D01*
X173954478Y-69679308D01*
X174019369Y-69622131D01*
X174087549Y-69576299D01*
X174158855Y-69541956D01*
X174225632Y-69520975D01*
X174249850Y-69515692D01*
X174271833Y-69512334D01*
X174295080Y-69510664D01*
X174323088Y-69510442D01*
X174359356Y-69511426D01*
G37*
%TD.AperFunction*%
%TA.AperFunction,EtchedComponent*%
G36*
X164033433Y-68813031D02*
G01*
X164154907Y-68828422D01*
X164270099Y-68854139D01*
X164379047Y-68890193D01*
X164481787Y-68936603D01*
X164578357Y-68993379D01*
X164668795Y-69060541D01*
X164753138Y-69138100D01*
X164753639Y-69138609D01*
X164806102Y-69192075D01*
X164635579Y-69365162D01*
X164465058Y-69538249D01*
X164419768Y-69499239D01*
X164346653Y-69441782D01*
X164272390Y-69394130D01*
X164198186Y-69356980D01*
X164129410Y-69332211D01*
X164062467Y-69316905D01*
X163991395Y-69307870D01*
X163919755Y-69305242D01*
X163851105Y-69309155D01*
X163790650Y-69319350D01*
X163729105Y-69339404D01*
X163673012Y-69368451D01*
X163623541Y-69405396D01*
X163581861Y-69449147D01*
X163549142Y-69498608D01*
X163526558Y-69552687D01*
X163521666Y-69570764D01*
X163512475Y-69632477D01*
X163514380Y-69691330D01*
X163527165Y-69746441D01*
X163550610Y-69796925D01*
X163584498Y-69841898D01*
X163590197Y-69847840D01*
X163616761Y-69872236D01*
X163648556Y-69896643D01*
X163686561Y-69921612D01*
X163731755Y-69947693D01*
X163785123Y-69975438D01*
X163847641Y-70005401D01*
X163920295Y-70038131D01*
X163957025Y-70054112D01*
X164039906Y-70090879D01*
X164112630Y-70125506D01*
X164176755Y-70158897D01*
X164233834Y-70191953D01*
X164285423Y-70225577D01*
X164333077Y-70260669D01*
X164378353Y-70298133D01*
X164379351Y-70299007D01*
X164440705Y-70358739D01*
X164492080Y-70422219D01*
X164533983Y-70490525D01*
X164566929Y-70564736D01*
X164591428Y-70645924D01*
X164607993Y-70735172D01*
X164614403Y-70793812D01*
X164617745Y-70902144D01*
X164609768Y-71009391D01*
X164590820Y-71114520D01*
X164561257Y-71216497D01*
X164521427Y-71314288D01*
X164471685Y-71406860D01*
X164412381Y-71493176D01*
X164352469Y-71563243D01*
X164270773Y-71640842D01*
X164181526Y-71709089D01*
X164085049Y-71767824D01*
X163981665Y-71816882D01*
X163871698Y-71856100D01*
X163755470Y-71885313D01*
X163695166Y-71896108D01*
X163667835Y-71899805D01*
X163633442Y-71903614D01*
X163594769Y-71907312D01*
X163554603Y-71910682D01*
X163515730Y-71913501D01*
X163480933Y-71915550D01*
X163453002Y-71916610D01*
X163436725Y-71916564D01*
X163423851Y-71915915D01*
X163401882Y-71914715D01*
X163373802Y-71913129D01*
X163342596Y-71911325D01*
X163339925Y-71911169D01*
X163213056Y-71898266D01*
X163091969Y-71874751D01*
X162976579Y-71840602D01*
X162866799Y-71795786D01*
X162762546Y-71740277D01*
X162710725Y-71707336D01*
X162667755Y-71676785D01*
X162623421Y-71642347D01*
X162580246Y-71606190D01*
X162540752Y-71570478D01*
X162507465Y-71537376D01*
X162490155Y-71518052D01*
X162463186Y-71485918D01*
X162568805Y-71383973D01*
X162604519Y-71349556D01*
X162643101Y-71312470D01*
X162681809Y-71275340D01*
X162717908Y-71240793D01*
X162748663Y-71211451D01*
X162754508Y-71205891D01*
X162834590Y-71129752D01*
X162880246Y-71172391D01*
X162960293Y-71240540D01*
X163041977Y-71296830D01*
X163125776Y-71341450D01*
X163212174Y-71374585D01*
X163301651Y-71396422D01*
X163394687Y-71407147D01*
X163485125Y-71407299D01*
X163555898Y-71400749D01*
X163619211Y-71388012D01*
X163678449Y-71368263D01*
X163717480Y-71350729D01*
X163776863Y-71315083D01*
X163827320Y-71271463D01*
X163868548Y-71220381D01*
X163900242Y-71162355D01*
X163922098Y-71097894D01*
X163933813Y-71027517D01*
X163935850Y-70981072D01*
X163932124Y-70926291D01*
X163921578Y-70872350D01*
X163905162Y-70823428D01*
X163895201Y-70802435D01*
X163874220Y-70769832D01*
X163845965Y-70737509D01*
X163809820Y-70705055D01*
X163765166Y-70672062D01*
X163711383Y-70638115D01*
X163647856Y-70602805D01*
X163573963Y-70565722D01*
X163489088Y-70526455D01*
X163460925Y-70513983D01*
X163351049Y-70462700D01*
X163252886Y-70410217D01*
X163166080Y-70356068D01*
X163090268Y-70299788D01*
X163025090Y-70240911D01*
X162970182Y-70178972D01*
X162925188Y-70113508D01*
X162889742Y-70044051D01*
X162863485Y-69970134D01*
X162846056Y-69891295D01*
X162837092Y-69807068D01*
X162836235Y-69716988D01*
X162836513Y-69709350D01*
X162846434Y-69606093D01*
X162867592Y-69506530D01*
X162899531Y-69411241D01*
X162941797Y-69320801D01*
X162993935Y-69235788D01*
X163055490Y-69156782D01*
X163126006Y-69084358D01*
X163205030Y-69019094D01*
X163292105Y-68961567D01*
X163386779Y-68912356D01*
X163488594Y-68872039D01*
X163498736Y-68868655D01*
X163595344Y-68841378D01*
X163694617Y-68822406D01*
X163798926Y-68811382D01*
X163905639Y-68807951D01*
X164033433Y-68813031D01*
G37*
%TD.AperFunction*%
%TA.AperFunction,EtchedComponent*%
G36*
X167539439Y-68473383D02*
G01*
X167554929Y-68478135D01*
X167567515Y-68488955D01*
X167579712Y-68505235D01*
X167588109Y-68526233D01*
X167590006Y-68551822D01*
X167585544Y-68576639D01*
X167577417Y-68592431D01*
X167555957Y-68612224D01*
X167531009Y-68623308D01*
X167507843Y-68624461D01*
X167496443Y-68623690D01*
X167487306Y-68626737D01*
X167479021Y-68635314D01*
X167470174Y-68651127D01*
X167459352Y-68675889D01*
X167453568Y-68690138D01*
X167438569Y-68729499D01*
X167428051Y-68763088D01*
X167421343Y-68794716D01*
X167417778Y-68828192D01*
X167416690Y-68867327D01*
X167417014Y-68898650D01*
X167417888Y-68934166D01*
X167419222Y-68960760D01*
X167421495Y-68981611D01*
X167425191Y-68999899D01*
X167430789Y-69018800D01*
X167438529Y-69040825D01*
X167451368Y-69074462D01*
X167463894Y-69104245D01*
X167475243Y-69128365D01*
X167484558Y-69145017D01*
X167490973Y-69152397D01*
X167491840Y-69152602D01*
X167499520Y-69150734D01*
X167515050Y-69146022D01*
X167532002Y-69140502D01*
X167553321Y-69134083D01*
X167571808Y-69129745D01*
X167581256Y-69128550D01*
X167586501Y-69128119D01*
X167590261Y-69125609D01*
X167592875Y-69119209D01*
X167594685Y-69107100D01*
X167596028Y-69087465D01*
X167597246Y-69058490D01*
X167597934Y-69039313D01*
X167599354Y-69005456D01*
X167601083Y-68973910D01*
X167602934Y-68947617D01*
X167604712Y-68929518D01*
X167605247Y-68925875D01*
X167609600Y-68908339D01*
X167617371Y-68883799D01*
X167627282Y-68855692D01*
X167638049Y-68827457D01*
X167648391Y-68802530D01*
X167657026Y-68784351D01*
X167659749Y-68779687D01*
X167664860Y-68769014D01*
X167663598Y-68758305D01*
X167658813Y-68747589D01*
X167652320Y-68721997D01*
X167657699Y-68695725D01*
X167674769Y-68669529D01*
X167690605Y-68655083D01*
X167708574Y-68647905D01*
X167720956Y-68645952D01*
X167751786Y-68647557D01*
X167776998Y-68658670D01*
X167795326Y-68677515D01*
X167805507Y-68702308D01*
X167806275Y-68731270D01*
X167799288Y-68756183D01*
X167787214Y-68775335D01*
X167768668Y-68787713D01*
X167741309Y-68794769D01*
X167735774Y-68795524D01*
X167722077Y-68797623D01*
X167712912Y-68801451D01*
X167705813Y-68809527D01*
X167698311Y-68824371D01*
X167691056Y-68841175D01*
X167677546Y-68874707D01*
X167667756Y-68904251D01*
X167660977Y-68933296D01*
X167656506Y-68965331D01*
X167653630Y-69003846D01*
X167652360Y-69031959D01*
X167648990Y-69119893D01*
X167696658Y-69129654D01*
X167726667Y-69135859D01*
X167747530Y-69140476D01*
X167761966Y-69144287D01*
X167772696Y-69148085D01*
X167782435Y-69152658D01*
X167790236Y-69156804D01*
X167841455Y-69190198D01*
X167886222Y-69230738D01*
X167923403Y-69276779D01*
X167951861Y-69326680D01*
X167970462Y-69378798D01*
X167977946Y-69428368D01*
X167979625Y-69464325D01*
X167927840Y-69466062D01*
X167876054Y-69467797D01*
X167872953Y-69444887D01*
X167868000Y-69426427D01*
X167858724Y-69404272D01*
X167852055Y-69391725D01*
X167838692Y-69372317D01*
X167822893Y-69357666D01*
X167800384Y-69343945D01*
X167796326Y-69341813D01*
X167759569Y-69326817D01*
X167725761Y-69322346D01*
X167692104Y-69328279D01*
X167671683Y-69336377D01*
X167636381Y-69359024D01*
X167609876Y-69389978D01*
X167592192Y-69429207D01*
X167591586Y-69431228D01*
X167580975Y-69467334D01*
X167535600Y-69467806D01*
X167512305Y-69468170D01*
X167493090Y-69468691D01*
X167481755Y-69469264D01*
X167481150Y-69469327D01*
X167472071Y-69469591D01*
X167453337Y-69469598D01*
X167427392Y-69469365D01*
X167396677Y-69468906D01*
X167385107Y-69468692D01*
X167298137Y-69467009D01*
X167302184Y-69435417D01*
X167312377Y-69382020D01*
X167328150Y-69334387D01*
X167346057Y-69299346D01*
X167356638Y-69281755D01*
X167363933Y-69268011D01*
X167366200Y-69261834D01*
X167370600Y-69253822D01*
X167373763Y-69251219D01*
X167381432Y-69244599D01*
X167394664Y-69231750D01*
X167410767Y-69215293D01*
X167412854Y-69213105D01*
X167444381Y-69179975D01*
X167427979Y-69155598D01*
X167419406Y-69140000D01*
X167408649Y-69116262D01*
X167397169Y-69087786D01*
X167387734Y-69061823D01*
X167363893Y-68992425D01*
X167364149Y-68886550D01*
X167364334Y-68847870D01*
X167364886Y-68818592D01*
X167366128Y-68796024D01*
X167368383Y-68777463D01*
X167371971Y-68760220D01*
X167377216Y-68741592D01*
X167384020Y-68720175D01*
X167394707Y-68689834D01*
X167406915Y-68659208D01*
X167418685Y-68633079D01*
X167423695Y-68623371D01*
X167435085Y-68600888D01*
X167441005Y-68582513D01*
X167442951Y-68562461D01*
X167442888Y-68549278D01*
X167442934Y-68527740D01*
X167445283Y-68513796D01*
X167451390Y-68502974D01*
X167461601Y-68491909D01*
X167474271Y-68480583D01*
X167486272Y-68474717D01*
X167502485Y-68472561D01*
X167516487Y-68472328D01*
X167539439Y-68473383D01*
G37*
%TD.AperFunction*%
%TA.AperFunction,EtchedComponent*%
G36*
X166409209Y-69503340D02*
G01*
X166478964Y-69516525D01*
X166544018Y-69538846D01*
X166603377Y-69570109D01*
X166656043Y-69610121D01*
X166701018Y-69658687D01*
X166704052Y-69662666D01*
X166743676Y-69725055D01*
X166774988Y-69795093D01*
X166797581Y-69871270D01*
X166811045Y-69952074D01*
X166814973Y-70035995D01*
X166813828Y-70069325D01*
X166812569Y-70082445D01*
X166809693Y-70106805D01*
X166805297Y-70141669D01*
X166799485Y-70186302D01*
X166792356Y-70239965D01*
X166784009Y-70301924D01*
X166774549Y-70371442D01*
X166764073Y-70447782D01*
X166752680Y-70530207D01*
X166740475Y-70617979D01*
X166727556Y-70710367D01*
X166714025Y-70806631D01*
X166699980Y-70906035D01*
X166688982Y-70983530D01*
X166674742Y-71083712D01*
X166660976Y-71180607D01*
X166647781Y-71273542D01*
X166635250Y-71361838D01*
X166623483Y-71444821D01*
X166612572Y-71521814D01*
X166602613Y-71592144D01*
X166593703Y-71655132D01*
X166585937Y-71710104D01*
X166579412Y-71756385D01*
X166574221Y-71793297D01*
X166570462Y-71820166D01*
X166568227Y-71836315D01*
X166567600Y-71841118D01*
X166561737Y-71841858D01*
X166544891Y-71842553D01*
X166518176Y-71843188D01*
X166482712Y-71843749D01*
X166439615Y-71844223D01*
X166390002Y-71844596D01*
X166334989Y-71844855D01*
X166275693Y-71844984D01*
X166249303Y-71845000D01*
X165931004Y-71845000D01*
X165934523Y-71825337D01*
X165936528Y-71812823D01*
X165940037Y-71789404D01*
X165944928Y-71755966D01*
X165951076Y-71713396D01*
X165958357Y-71662578D01*
X165966646Y-71604403D01*
X165975821Y-71539755D01*
X165985758Y-71469520D01*
X165996331Y-71394587D01*
X166007418Y-71315842D01*
X166018895Y-71234171D01*
X166030635Y-71150462D01*
X166042519Y-71065600D01*
X166054420Y-70980473D01*
X166066212Y-70895968D01*
X166077775Y-70812972D01*
X166088983Y-70732370D01*
X166099712Y-70655051D01*
X166109840Y-70581902D01*
X166119240Y-70513806D01*
X166127790Y-70451654D01*
X166135364Y-70396328D01*
X166141842Y-70348719D01*
X166147097Y-70309712D01*
X166151004Y-70280194D01*
X166153442Y-70261052D01*
X166154252Y-70253762D01*
X166155015Y-70216237D01*
X166152040Y-70178411D01*
X166145863Y-70143626D01*
X166137018Y-70115220D01*
X166129817Y-70101344D01*
X166105462Y-70075020D01*
X166075401Y-70058878D01*
X166040761Y-70053110D01*
X166002671Y-70057914D01*
X165963980Y-70072617D01*
X165926283Y-70096696D01*
X165886345Y-70132219D01*
X165844458Y-70178797D01*
X165800914Y-70236038D01*
X165756003Y-70303556D01*
X165710021Y-70380961D01*
X165663256Y-70467865D01*
X165654737Y-70484570D01*
X165616885Y-70559375D01*
X165527866Y-71200675D01*
X165438848Y-71841975D01*
X165122950Y-71843540D01*
X165053027Y-71843870D01*
X164994242Y-71844090D01*
X164945630Y-71844171D01*
X164906229Y-71844085D01*
X164875076Y-71843805D01*
X164851208Y-71843299D01*
X164833662Y-71842540D01*
X164821474Y-71841500D01*
X164813681Y-71840151D01*
X164809323Y-71838462D01*
X164807434Y-71836409D01*
X164807050Y-71834188D01*
X164807870Y-71827341D01*
X164810262Y-71809233D01*
X164814126Y-71780579D01*
X164819363Y-71742103D01*
X164825871Y-71694524D01*
X164833553Y-71638559D01*
X164842305Y-71574934D01*
X164852032Y-71504366D01*
X164862629Y-71427574D01*
X164873999Y-71345279D01*
X164886041Y-71258203D01*
X164898656Y-71167064D01*
X164911743Y-71072584D01*
X164925203Y-70975481D01*
X164938934Y-70876476D01*
X164952838Y-70776289D01*
X164966813Y-70675641D01*
X164980762Y-70575255D01*
X164994583Y-70475844D01*
X165008174Y-70378132D01*
X165021440Y-70282839D01*
X165034279Y-70190685D01*
X165046588Y-70102390D01*
X165058268Y-70018675D01*
X165069223Y-69940260D01*
X165079349Y-69867865D01*
X165088548Y-69802209D01*
X165096719Y-69744014D01*
X165103762Y-69693999D01*
X165109578Y-69652883D01*
X165114066Y-69621389D01*
X165117125Y-69600235D01*
X165118657Y-69590140D01*
X165118706Y-69589863D01*
X165122199Y-69570200D01*
X165393167Y-69570200D01*
X165449229Y-69570255D01*
X165501485Y-69570411D01*
X165548708Y-69570656D01*
X165589673Y-69570980D01*
X165623156Y-69571371D01*
X165647930Y-69571819D01*
X165662770Y-69572311D01*
X165666655Y-69572713D01*
X165667190Y-69579227D01*
X165667281Y-69596056D01*
X165666952Y-69621425D01*
X165666233Y-69653560D01*
X165665151Y-69690679D01*
X165664593Y-69707325D01*
X165663275Y-69749803D01*
X165662260Y-69791589D01*
X165661592Y-69829970D01*
X165661316Y-69862231D01*
X165661479Y-69885660D01*
X165661568Y-69889045D01*
X165663125Y-69938664D01*
X165708500Y-69877229D01*
X165766804Y-69804186D01*
X165829085Y-69737091D01*
X165894013Y-69677062D01*
X165960261Y-69625216D01*
X166026494Y-69582671D01*
X166091384Y-69550545D01*
X166103122Y-69545837D01*
X166181712Y-69520540D01*
X166259587Y-69505154D01*
X166335751Y-69499486D01*
X166409209Y-69503340D01*
G37*
%TD.AperFunction*%
%TA.AperFunction,EtchedComponent*%
G36*
X172114958Y-69500682D02*
G01*
X172216206Y-69510079D01*
X172313744Y-69528367D01*
X172405911Y-69555731D01*
X172416576Y-69559649D01*
X172491021Y-69593379D01*
X172560215Y-69636186D01*
X172622996Y-69686909D01*
X172678202Y-69744391D01*
X172724669Y-69807469D01*
X172761240Y-69874986D01*
X172779578Y-69921990D01*
X172798548Y-69997175D01*
X172807981Y-70077412D01*
X172808061Y-70160553D01*
X172798976Y-70244449D01*
X172780911Y-70326954D01*
X172754052Y-70405917D01*
X172733905Y-70450475D01*
X172695895Y-70516988D01*
X172651008Y-70577334D01*
X172598197Y-70632484D01*
X172536418Y-70683414D01*
X172464635Y-70731093D01*
X172387700Y-70773517D01*
X172268735Y-70828501D01*
X172140009Y-70877623D01*
X172002497Y-70920613D01*
X171857166Y-70957198D01*
X171704991Y-70987103D01*
X171546943Y-71010058D01*
X171542212Y-71010625D01*
X171480200Y-71018021D01*
X171480200Y-71045980D01*
X171482735Y-71096206D01*
X171489841Y-71148794D01*
X171500760Y-71200259D01*
X171514734Y-71247112D01*
X171531007Y-71285868D01*
X171533128Y-71289903D01*
X171552303Y-71317864D01*
X171578962Y-71346933D01*
X171609386Y-71373641D01*
X171639860Y-71394519D01*
X171651961Y-71400799D01*
X171701128Y-71417973D01*
X171757860Y-71428712D01*
X171819411Y-71432907D01*
X171883034Y-71430457D01*
X171945981Y-71421253D01*
X171979325Y-71413276D01*
X172044457Y-71391683D01*
X172114576Y-71361853D01*
X172187149Y-71325028D01*
X172259635Y-71282447D01*
X172298129Y-71257307D01*
X172316064Y-71245618D01*
X172330162Y-71237295D01*
X172337412Y-71234113D01*
X172337454Y-71234115D01*
X172341427Y-71239160D01*
X172350572Y-71253264D01*
X172364041Y-71274984D01*
X172380990Y-71302879D01*
X172400568Y-71335510D01*
X172421934Y-71371436D01*
X172444236Y-71409219D01*
X172466631Y-71447413D01*
X172488270Y-71484583D01*
X172508310Y-71519286D01*
X172525901Y-71550082D01*
X172540198Y-71575530D01*
X172550353Y-71594192D01*
X172555521Y-71604623D01*
X172555967Y-71605908D01*
X172552086Y-71614086D01*
X172538963Y-71627071D01*
X172518007Y-71643934D01*
X172490631Y-71663747D01*
X172458247Y-71685584D01*
X172422269Y-71708518D01*
X172384106Y-71731623D01*
X172345170Y-71753967D01*
X172306875Y-71774627D01*
X172274119Y-71791015D01*
X172211933Y-71818095D01*
X172142529Y-71843781D01*
X172070785Y-71866450D01*
X172001581Y-71884484D01*
X171976300Y-71889918D01*
X171945702Y-71895266D01*
X171908439Y-71900591D01*
X171867351Y-71905608D01*
X171825271Y-71910033D01*
X171785038Y-71913579D01*
X171749491Y-71915962D01*
X171721465Y-71916894D01*
X171710100Y-71916678D01*
X171698172Y-71915935D01*
X171677241Y-71914526D01*
X171650370Y-71912658D01*
X171623703Y-71910765D01*
X171516892Y-71897934D01*
X171416851Y-71875393D01*
X171323864Y-71843376D01*
X171238218Y-71802115D01*
X171160194Y-71751846D01*
X171090078Y-71692800D01*
X171028153Y-71625213D01*
X170974706Y-71549320D01*
X170930018Y-71465351D01*
X170894375Y-71373542D01*
X170872138Y-71292757D01*
X170858988Y-71220805D01*
X170850036Y-71139744D01*
X170845272Y-71051810D01*
X170844684Y-70959237D01*
X170848259Y-70864259D01*
X170855988Y-70769112D01*
X170867856Y-70676028D01*
X170875643Y-70629277D01*
X170881098Y-70603349D01*
X171517766Y-70603349D01*
X171518211Y-70611314D01*
X171522809Y-70615572D01*
X171533434Y-70616660D01*
X171551958Y-70615117D01*
X171580252Y-70611483D01*
X171587148Y-70610565D01*
X171691996Y-70593026D01*
X171786403Y-70569593D01*
X171870540Y-70540190D01*
X171944577Y-70504740D01*
X172008684Y-70463165D01*
X172063029Y-70415391D01*
X172092064Y-70382412D01*
X172131015Y-70326188D01*
X172158465Y-70269395D01*
X172174965Y-70210404D01*
X172181070Y-70147585D01*
X172180711Y-70120750D01*
X172175109Y-70069780D01*
X172162642Y-70028086D01*
X172142765Y-69994634D01*
X172114935Y-69968381D01*
X172094275Y-69955693D01*
X172072907Y-69948300D01*
X172043109Y-69943033D01*
X172008394Y-69940106D01*
X171972278Y-69939733D01*
X171938278Y-69942129D01*
X171919856Y-69945087D01*
X171882341Y-69956461D01*
X171841825Y-69974676D01*
X171803088Y-69997312D01*
X171774701Y-70018592D01*
X171741293Y-70052600D01*
X171707247Y-70096941D01*
X171673558Y-70149954D01*
X171641214Y-70209982D01*
X171611214Y-70275370D01*
X171592291Y-70323032D01*
X171582474Y-70351634D01*
X171571149Y-70388202D01*
X171559145Y-70429666D01*
X171547298Y-70472954D01*
X171536440Y-70514998D01*
X171527403Y-70552727D01*
X171521018Y-70583069D01*
X171519603Y-70591137D01*
X171517766Y-70603349D01*
X170881098Y-70603349D01*
X170898484Y-70520725D01*
X170927121Y-70413997D01*
X170960802Y-70311245D01*
X170998779Y-70214615D01*
X171040302Y-70126254D01*
X171070266Y-70071842D01*
X171127976Y-69982828D01*
X171193372Y-69897705D01*
X171264695Y-69818379D01*
X171340188Y-69746761D01*
X171418095Y-69684761D01*
X171441713Y-69668297D01*
X171522471Y-69620639D01*
X171611136Y-69580577D01*
X171706046Y-69548296D01*
X171805542Y-69523982D01*
X171907966Y-69507817D01*
X172011658Y-69499990D01*
X172114958Y-69500682D01*
G37*
%TD.AperFunction*%
%TA.AperFunction,EtchedComponent*%
G36*
X169463821Y-68605280D02*
G01*
X169496722Y-68608017D01*
X169570556Y-68619221D01*
X169646623Y-68636412D01*
X169719432Y-68658239D01*
X169756712Y-68671976D01*
X169787565Y-68685310D01*
X169822447Y-68702072D01*
X169858420Y-68720681D01*
X169892552Y-68739563D01*
X169921909Y-68757135D01*
X169943556Y-68771824D01*
X169946232Y-68773898D01*
X169962959Y-68787237D01*
X169853096Y-68971507D01*
X169827506Y-69014347D01*
X169803784Y-69053908D01*
X169782662Y-69088976D01*
X169764871Y-69118347D01*
X169751141Y-69140813D01*
X169742205Y-69155167D01*
X169738867Y-69160150D01*
X169731960Y-69159465D01*
X169716842Y-69154120D01*
X169696012Y-69145078D01*
X169680185Y-69137474D01*
X169648344Y-69123267D01*
X169611227Y-69109174D01*
X169575431Y-69097643D01*
X169565375Y-69094904D01*
X169536944Y-69088057D01*
X169513100Y-69083730D01*
X169489621Y-69081512D01*
X169462275Y-69080994D01*
X169429250Y-69081690D01*
X169382755Y-69084373D01*
X169345439Y-69089891D01*
X169314524Y-69099199D01*
X169287236Y-69113252D01*
X169260797Y-69133007D01*
X169248517Y-69143935D01*
X169212590Y-69185271D01*
X169183021Y-69236829D01*
X169159860Y-69298509D01*
X169145318Y-69358450D01*
X169142411Y-69374890D01*
X169138507Y-69398839D01*
X169133979Y-69427778D01*
X169129201Y-69459183D01*
X169124552Y-69490534D01*
X169120404Y-69519311D01*
X169117133Y-69542992D01*
X169115115Y-69559054D01*
X169114650Y-69564483D01*
X169120604Y-69565694D01*
X169138093Y-69566781D01*
X169166551Y-69567734D01*
X169205412Y-69568545D01*
X169254108Y-69569205D01*
X169312076Y-69569704D01*
X169378750Y-69570037D01*
X169453564Y-69570191D01*
X169480000Y-69570200D01*
X169845352Y-69570200D01*
X169848830Y-69550538D01*
X169850833Y-69537747D01*
X169854038Y-69515598D01*
X169858071Y-69486729D01*
X169862565Y-69453783D01*
X169864799Y-69437100D01*
X169869946Y-69399916D01*
X169875462Y-69362447D01*
X169880785Y-69328392D01*
X169885348Y-69301456D01*
X169886558Y-69294925D01*
X169911807Y-69193079D01*
X169947391Y-69096516D01*
X169992929Y-69005974D01*
X170048039Y-68922189D01*
X170112344Y-68845894D01*
X170125257Y-68832623D01*
X170192864Y-68772365D01*
X170266771Y-68721403D01*
X170347669Y-68679389D01*
X170436254Y-68645972D01*
X170533221Y-68620804D01*
X170556148Y-68616264D01*
X170590342Y-68611512D01*
X170633410Y-68608061D01*
X170682487Y-68605910D01*
X170734711Y-68605060D01*
X170787218Y-68605511D01*
X170837146Y-68607265D01*
X170881630Y-68610318D01*
X170917808Y-68614674D01*
X170926625Y-68616239D01*
X171025584Y-68639763D01*
X171115099Y-68669826D01*
X171146973Y-68683086D01*
X171176235Y-68696762D01*
X171207715Y-68712804D01*
X171239116Y-68729894D01*
X171268139Y-68746710D01*
X171292486Y-68761933D01*
X171309858Y-68774245D01*
X171316769Y-68780581D01*
X171317966Y-68784456D01*
X171316720Y-68791326D01*
X171312514Y-68802168D01*
X171304835Y-68817962D01*
X171293163Y-68839687D01*
X171276984Y-68868326D01*
X171255781Y-68904856D01*
X171229037Y-68950256D01*
X171213909Y-68975775D01*
X171188387Y-69018739D01*
X171164832Y-69058331D01*
X171143953Y-69093368D01*
X171126456Y-69122664D01*
X171113050Y-69145035D01*
X171104443Y-69159293D01*
X171101363Y-69164239D01*
X171095411Y-69162842D01*
X171081815Y-69156863D01*
X171063512Y-69147595D01*
X171063391Y-69147531D01*
X170989308Y-69113847D01*
X170915071Y-69091903D01*
X170839468Y-69081385D01*
X170803716Y-69080299D01*
X170750462Y-69082733D01*
X170706139Y-69090296D01*
X170668369Y-69103822D01*
X170634773Y-69124149D01*
X170605038Y-69150032D01*
X170580065Y-69178541D01*
X170558824Y-69211277D01*
X170540748Y-69249731D01*
X170525270Y-69295390D01*
X170511820Y-69349737D01*
X170499836Y-69414267D01*
X170496707Y-69434075D01*
X170491430Y-69468497D01*
X170486552Y-69500112D01*
X170482471Y-69526356D01*
X170479586Y-69544660D01*
X170478631Y-69550538D01*
X170475350Y-69570200D01*
X170718129Y-69570200D01*
X170780969Y-69570273D01*
X170832616Y-69570512D01*
X170873977Y-69570944D01*
X170905956Y-69571599D01*
X170929460Y-69572504D01*
X170945396Y-69573689D01*
X170954668Y-69575181D01*
X170958185Y-69577011D01*
X170958212Y-69577763D01*
X170955915Y-69585091D01*
X170950541Y-69602688D01*
X170942488Y-69629234D01*
X170932152Y-69663411D01*
X170919938Y-69703898D01*
X170906240Y-69749374D01*
X170891460Y-69798520D01*
X170889645Y-69804559D01*
X170823775Y-70023792D01*
X170620272Y-70023871D01*
X170416772Y-70023950D01*
X170413049Y-70049663D01*
X170411779Y-70058759D01*
X170408972Y-70079107D01*
X170404731Y-70109966D01*
X170399151Y-70150601D01*
X170392338Y-70200275D01*
X170384392Y-70258248D01*
X170375412Y-70323784D01*
X170365502Y-70396145D01*
X170354762Y-70474595D01*
X170343293Y-70558393D01*
X170331197Y-70646801D01*
X170318572Y-70739086D01*
X170305523Y-70834508D01*
X170303434Y-70849775D01*
X170290124Y-70946903D01*
X170277060Y-71041832D01*
X170264356Y-71133749D01*
X170252127Y-71221841D01*
X170240486Y-71305294D01*
X170229551Y-71383295D01*
X170219435Y-71455034D01*
X170210252Y-71519695D01*
X170202117Y-71576466D01*
X170195145Y-71624533D01*
X170189451Y-71663085D01*
X170185150Y-71691310D01*
X170182355Y-71708392D01*
X170182267Y-71708875D01*
X170155422Y-71834896D01*
X170121917Y-71951323D01*
X170081388Y-72058896D01*
X170033473Y-72158354D01*
X169977807Y-72250438D01*
X169914025Y-72335886D01*
X169841765Y-72415435D01*
X169827692Y-72429318D01*
X169773903Y-72478279D01*
X169716596Y-72523799D01*
X169653904Y-72567124D01*
X169583954Y-72609508D01*
X169504879Y-72652199D01*
X169462525Y-72673468D01*
X169428684Y-72689754D01*
X169392016Y-72706804D01*
X169354322Y-72723843D01*
X169317404Y-72740095D01*
X169283065Y-72754784D01*
X169253108Y-72767136D01*
X169229334Y-72776374D01*
X169213548Y-72781724D01*
X169208466Y-72782750D01*
X169204262Y-72776993D01*
X169196634Y-72759873D01*
X169185666Y-72731604D01*
X169171433Y-72692402D01*
X169154019Y-72642486D01*
X169133504Y-72582071D01*
X169123597Y-72552470D01*
X169106924Y-72502253D01*
X169091603Y-72455721D01*
X169078027Y-72414101D01*
X169066592Y-72378616D01*
X169057687Y-72350492D01*
X169051709Y-72330952D01*
X169049051Y-72321221D01*
X169048981Y-72320357D01*
X169055045Y-72317178D01*
X169069586Y-72310131D01*
X169090101Y-72300425D01*
X169103731Y-72294058D01*
X169157196Y-72267350D01*
X169210882Y-72237179D01*
X169261148Y-72205732D01*
X169304351Y-72175193D01*
X169313018Y-72168439D01*
X169367288Y-72117586D01*
X169415489Y-72056429D01*
X169457501Y-71985203D01*
X169493206Y-71904138D01*
X169522482Y-71813470D01*
X169544169Y-71718979D01*
X169546100Y-71707243D01*
X169549530Y-71684640D01*
X169554342Y-71652011D01*
X169560417Y-71610194D01*
X169567638Y-71560028D01*
X169575887Y-71502354D01*
X169585049Y-71438008D01*
X169595004Y-71367833D01*
X169605638Y-71292666D01*
X169616829Y-71213349D01*
X169628464Y-71130718D01*
X169640422Y-71045615D01*
X169652588Y-70958877D01*
X169664843Y-70871346D01*
X169677072Y-70783859D01*
X169689154Y-70697257D01*
X169700975Y-70612378D01*
X169712416Y-70530065D01*
X169723359Y-70451152D01*
X169733689Y-70376481D01*
X169743285Y-70306891D01*
X169752032Y-70243221D01*
X169759814Y-70186312D01*
X169766510Y-70137001D01*
X169772006Y-70096129D01*
X169776182Y-70064534D01*
X169778922Y-70043059D01*
X169780108Y-70032537D01*
X169780150Y-70031777D01*
X169777763Y-70029223D01*
X169769808Y-70027256D01*
X169755090Y-70025812D01*
X169732415Y-70024828D01*
X169700585Y-70024238D01*
X169658408Y-70023978D01*
X169634950Y-70023950D01*
X169589260Y-70023895D01*
X169554261Y-70023658D01*
X169528545Y-70023138D01*
X169510702Y-70022230D01*
X169499323Y-70020834D01*
X169492999Y-70018846D01*
X169490320Y-70016164D01*
X169489856Y-70013363D01*
X169490793Y-70002981D01*
X169493217Y-69983904D01*
X169496698Y-69959379D01*
X169498825Y-69945300D01*
X169503368Y-69914104D01*
X169506210Y-69890831D01*
X169507260Y-69876576D01*
X169506420Y-69872433D01*
X169504803Y-69875725D01*
X169502286Y-69883575D01*
X169497000Y-69900528D01*
X169489707Y-69924118D01*
X169481175Y-69951876D01*
X169480873Y-69952863D01*
X169459082Y-70023950D01*
X169257096Y-70023950D01*
X169055110Y-70023950D01*
X169051746Y-70040588D01*
X169050528Y-70048517D01*
X169047774Y-70067719D01*
X169043579Y-70097479D01*
X169038044Y-70137082D01*
X169031266Y-70185812D01*
X169023348Y-70242956D01*
X169014385Y-70307797D01*
X169004477Y-70379618D01*
X168993723Y-70457708D01*
X168982221Y-70541349D01*
X168970071Y-70629823D01*
X168957370Y-70722420D01*
X168944219Y-70818425D01*
X168939250Y-70854730D01*
X168922579Y-70976444D01*
X168907417Y-71086834D01*
X168893663Y-71186568D01*
X168881213Y-71276314D01*
X168869966Y-71356737D01*
X168859816Y-71428508D01*
X168850661Y-71492292D01*
X168842400Y-71548760D01*
X168834927Y-71598576D01*
X168828141Y-71642413D01*
X168821941Y-71680932D01*
X168816221Y-71714807D01*
X168810879Y-71744700D01*
X168805812Y-71771283D01*
X168800917Y-71795223D01*
X168796094Y-71817187D01*
X168791235Y-71837843D01*
X168786240Y-71857859D01*
X168782378Y-71872716D01*
X168746846Y-71986494D01*
X168701892Y-72094700D01*
X168648043Y-72196525D01*
X168585815Y-72291165D01*
X168515734Y-72377807D01*
X168438321Y-72455647D01*
X168368644Y-72513164D01*
X168317894Y-72548663D01*
X168257701Y-72586338D01*
X168190246Y-72625018D01*
X168117714Y-72663530D01*
X168042287Y-72700705D01*
X167966148Y-72735368D01*
X167912561Y-72757932D01*
X167838797Y-72787861D01*
X167762823Y-72559941D01*
X167746151Y-72509775D01*
X167730745Y-72463121D01*
X167717012Y-72421244D01*
X167705363Y-72385406D01*
X167696210Y-72356871D01*
X167689960Y-72336902D01*
X167687024Y-72326759D01*
X167686850Y-72325821D01*
X167691991Y-72321031D01*
X167706080Y-72312230D01*
X167727121Y-72300560D01*
X167753120Y-72287168D01*
X167760598Y-72283471D01*
X167841884Y-72240168D01*
X167912380Y-72194729D01*
X167973018Y-72145939D01*
X168024723Y-72092580D01*
X168068427Y-72033439D01*
X168105058Y-71967303D01*
X168135548Y-71892954D01*
X168160824Y-71809178D01*
X168176982Y-71739125D01*
X168179327Y-71725779D01*
X168183211Y-71701212D01*
X168188525Y-71666184D01*
X168195159Y-71621461D01*
X168203006Y-71567805D01*
X168211952Y-71505980D01*
X168221892Y-71436751D01*
X168232712Y-71360880D01*
X168244305Y-71279131D01*
X168256562Y-71192267D01*
X168269374Y-71101053D01*
X168282629Y-71006253D01*
X168296219Y-70908630D01*
X168301030Y-70873975D01*
X168314573Y-70776342D01*
X168327701Y-70681772D01*
X168340310Y-70590980D01*
X168352304Y-70504687D01*
X168363578Y-70423608D01*
X168374037Y-70348464D01*
X168383576Y-70279971D01*
X168392099Y-70218851D01*
X168399503Y-70165821D01*
X168405691Y-70121600D01*
X168410559Y-70086905D01*
X168414009Y-70062456D01*
X168415941Y-70048970D01*
X168416278Y-70046745D01*
X168419928Y-70024165D01*
X168272323Y-70022545D01*
X168124718Y-70020925D01*
X168156599Y-69797075D01*
X168163795Y-69746551D01*
X168170438Y-69699934D01*
X168176337Y-69658550D01*
X168181304Y-69623722D01*
X168185150Y-69596772D01*
X168187687Y-69579026D01*
X168188727Y-69571805D01*
X168188740Y-69571713D01*
X168194591Y-69571295D01*
X168210896Y-69570920D01*
X168236009Y-69570607D01*
X168268285Y-69570373D01*
X168306078Y-69570233D01*
X168336230Y-69570200D01*
X168483459Y-69570200D01*
X168502594Y-69431758D01*
X168515774Y-69345370D01*
X168530278Y-69269242D01*
X168546729Y-69201545D01*
X168565758Y-69140461D01*
X168587989Y-69084164D01*
X168614054Y-69030834D01*
X168644578Y-68978646D01*
X168673707Y-68934950D01*
X168699748Y-68901321D01*
X168732703Y-68864088D01*
X168769509Y-68826332D01*
X168807102Y-68791132D01*
X168842418Y-68761570D01*
X168856514Y-68751096D01*
X168925024Y-68708755D01*
X169001765Y-68672173D01*
X169083760Y-68642553D01*
X169168028Y-68621101D01*
X169187250Y-68617478D01*
X169235063Y-68610925D01*
X169290735Y-68606305D01*
X169350157Y-68603739D01*
X169409222Y-68603355D01*
X169463821Y-68605280D01*
G37*
%TD.AperFunction*%
%TD*%
D10*
%TO.P,CN1,1,1*%
%TO.N,GND*%
X152577800Y-45580800D03*
%TO.P,CN1,2,2*%
X156687800Y-45580800D03*
%TO.P,CN1,3,3*%
%TO.N,/SCL*%
X152577800Y-47580800D03*
%TO.P,CN1,4,4*%
%TO.N,/SDA*%
X156687800Y-47580800D03*
%TO.P,CN1,5,5*%
%TO.N,/A2*%
X152577800Y-49580800D03*
%TO.P,CN1,6,6*%
%TO.N,/PLUG*%
X156687800Y-49580800D03*
%TO.P,CN1,7,7*%
%TO.N,/A0*%
X152577800Y-51580800D03*
%TO.P,CN1,8,8*%
%TO.N,/A1*%
X156687800Y-51580800D03*
%TO.P,CN1,9,9*%
%TO.N,GND*%
X152577800Y-53580800D03*
%TO.P,CN1,10,10*%
X156687800Y-53580800D03*
%TO.P,CN1,11,11*%
%TO.N,/RX*%
X152577800Y-55580800D03*
%TO.P,CN1,12,12*%
%TO.N,/TX*%
X156687800Y-55580800D03*
%TO.P,CN1,13,13*%
%TO.N,GND*%
X152577800Y-57580800D03*
%TO.P,CN1,14,14*%
X156687800Y-57580800D03*
%TO.P,CN1,15,15*%
%TO.N,/3V3*%
X152577800Y-59580800D03*
%TO.P,CN1,16,16*%
%TO.N,/RST*%
X156687800Y-59580800D03*
%TO.P,CN1,17,17*%
%TO.N,unconnected-(CN1-Pad17)*%
X152577800Y-61580800D03*
%TO.P,CN1,18,18*%
%TO.N,unconnected-(CN1-Pad18)*%
X156687800Y-61580800D03*
D11*
%TO.P,CN1,19,19*%
%TO.N,GND*%
X146827800Y-65360800D03*
%TO.P,CN1,20,20*%
X146827800Y-41800800D03*
%TD*%
D12*
%TO.P,S1,1*%
%TO.N,/RST*%
X158768000Y-69710400D03*
%TO.P,S1,2*%
%TO.N,GND*%
X158768000Y-71310400D03*
%TO.P,S1,3*%
X154668000Y-71310400D03*
%TO.P,S1,4*%
%TO.N,/RST*%
X154668000Y-69710400D03*
D13*
%TO.P,S1,GND*%
X156718000Y-69085400D03*
%TD*%
D12*
%TO.P,S2,1*%
%TO.N,/PLUG*%
X182212200Y-69785400D03*
%TO.P,S2,2*%
%TO.N,GND*%
X182212200Y-71385400D03*
%TO.P,S2,3*%
X178112200Y-71385400D03*
%TO.P,S2,4*%
%TO.N,/PLUG*%
X178112200Y-69785400D03*
D13*
%TO.P,S2,GND*%
X180162200Y-69160400D03*
%TD*%
D10*
%TO.P,CN2,1,1*%
%TO.N,unconnected-(CN2-Pad1)*%
X184222900Y-61568600D03*
%TO.P,CN2,2,2*%
%TO.N,unconnected-(CN2-Pad2)*%
X180112900Y-61568600D03*
%TO.P,CN2,3,3*%
%TO.N,/3V3*%
X184222900Y-59568600D03*
%TO.P,CN2,4,4*%
%TO.N,/RST*%
X180112900Y-59568600D03*
%TO.P,CN2,5,5*%
%TO.N,GND*%
X184222900Y-57568600D03*
%TO.P,CN2,6,6*%
X180112900Y-57568600D03*
%TO.P,CN2,7,7*%
%TO.N,/RX*%
X184222900Y-55568600D03*
%TO.P,CN2,8,8*%
%TO.N,/TX*%
X180112900Y-55568600D03*
%TO.P,CN2,9,9*%
%TO.N,GND*%
X184222900Y-53568600D03*
%TO.P,CN2,10,10*%
X180112900Y-53568600D03*
%TO.P,CN2,11,11*%
%TO.N,/A0*%
X184222900Y-51568600D03*
%TO.P,CN2,12,12*%
%TO.N,/A1*%
X180112900Y-51568600D03*
%TO.P,CN2,13,13*%
%TO.N,/A2*%
X184222900Y-49568600D03*
%TO.P,CN2,14,14*%
%TO.N,/PLUG*%
X180112900Y-49568600D03*
%TO.P,CN2,15,15*%
%TO.N,/SCL*%
X184222900Y-47568600D03*
%TO.P,CN2,16,16*%
%TO.N,/SDA*%
X180112900Y-47568600D03*
%TO.P,CN2,17,17*%
%TO.N,GND*%
X184222900Y-45568600D03*
%TO.P,CN2,18,18*%
X180112900Y-45568600D03*
D11*
%TO.P,CN2,19,19*%
X189972900Y-41788600D03*
%TO.P,CN2,20,20*%
X189972900Y-65348600D03*
%TD*%
D14*
%TO.P,J1,1,Pin_1*%
%TO.N,GND*%
X168173400Y-66395600D03*
D15*
%TO.P,J1,2,Pin_2*%
%TO.N,/3V3*%
X168173400Y-63855600D03*
%TO.P,J1,3,Pin_3*%
%TO.N,/A0*%
X168173400Y-61315600D03*
%TO.P,J1,4,Pin_4*%
%TO.N,/RX*%
X168173400Y-58775600D03*
%TO.P,J1,5,Pin_5*%
%TO.N,/RST*%
X168173400Y-56235600D03*
%TO.P,J1,6,Pin_6*%
%TO.N,/TX*%
X168173400Y-53695600D03*
%TO.P,J1,7,Pin_7*%
%TO.N,/A1*%
X168173400Y-51155600D03*
%TO.P,J1,8,Pin_8*%
%TO.N,/PLUG*%
X168173400Y-48615600D03*
%TO.P,J1,9,Pin_9*%
%TO.N,/SDA*%
X168173400Y-46075600D03*
%TO.P,J1,10,Pin_10*%
%TO.N,/SCL*%
X168173400Y-43535600D03*
%TO.P,J1,11,Pin_11*%
%TO.N,/A2*%
X168173400Y-40995600D03*
%TD*%
D16*
%TO.N,/RST*%
X155778200Y-59588400D03*
X156718000Y-67665600D03*
%TO.N,/3V3*%
X152857200Y-66497200D03*
X151688800Y-59563000D03*
X185166000Y-59563000D03*
X183921400Y-66294000D03*
%TO.N,GND*%
X146710400Y-65252600D03*
X182168800Y-57568600D03*
X154609800Y-57580800D03*
X189966600Y-41783000D03*
X154635200Y-53580800D03*
X146888200Y-41935400D03*
X182168800Y-53568600D03*
X182168800Y-45568600D03*
X184251600Y-71729600D03*
X189992000Y-65328800D03*
X154635200Y-45580800D03*
%TO.N,/PLUG*%
X188671200Y-51079400D03*
X181051200Y-49555400D03*
%TD*%
D17*
%TO.N,/RST*%
X171754800Y-56235600D02*
X175087800Y-59568600D01*
X156718000Y-69085400D02*
X156718000Y-67665600D01*
X154668000Y-69710400D02*
X158768000Y-69710400D01*
X168173400Y-56235600D02*
X171754800Y-56235600D01*
X168173400Y-56235600D02*
X164490400Y-56235600D01*
X175087800Y-59568600D02*
X180112900Y-59568600D01*
D18*
X156700000Y-59568600D02*
X156687800Y-59580800D01*
D17*
X164490400Y-56235600D02*
X161145200Y-59580800D01*
X161145200Y-59580800D02*
X156687800Y-59580800D01*
%TO.N,/3V3*%
X172237400Y-63855600D02*
X174345600Y-65963800D01*
X174345600Y-65963800D02*
X183591200Y-65963800D01*
X168173400Y-63855600D02*
X172237400Y-63855600D01*
X153136600Y-66217800D02*
X152857200Y-66497200D01*
X168173400Y-63855600D02*
X165709600Y-63855600D01*
X183591200Y-65963800D02*
X183921400Y-66294000D01*
X163347400Y-66217800D02*
X153136600Y-66217800D01*
X151671000Y-59580800D02*
X151638000Y-59613800D01*
X165709600Y-63855600D02*
X163347400Y-66217800D01*
X184222900Y-59568600D02*
X185185800Y-59568600D01*
X152577800Y-59580800D02*
X151671000Y-59580800D01*
X185185800Y-59568600D02*
X185191400Y-59563000D01*
%TO.N,GND*%
X152577800Y-45580800D02*
X154635200Y-45580800D01*
X146827800Y-67732200D02*
X146827800Y-65360800D01*
X152577800Y-53580800D02*
X154635200Y-53580800D01*
X154668000Y-71310400D02*
X150406000Y-71310400D01*
X189972900Y-65348600D02*
X189972900Y-65347900D01*
X152577800Y-57580800D02*
X154609800Y-57580800D01*
X154635200Y-45580800D02*
X156687800Y-45580800D01*
X178037200Y-71310400D02*
X178112200Y-71385400D01*
X180112900Y-45568600D02*
X182168800Y-45568600D01*
X178112200Y-71385400D02*
X182212200Y-71385400D01*
X146827800Y-65360800D02*
X146818600Y-65360800D01*
X154668000Y-71310400D02*
X158768000Y-71310400D01*
X189972900Y-65347900D02*
X189992000Y-65328800D01*
X189972900Y-41788600D02*
X189972200Y-41788600D01*
X154635200Y-53580800D02*
X156687800Y-53580800D01*
X146827800Y-41800800D02*
X146827800Y-41875000D01*
X184222900Y-45568600D02*
X182168800Y-45568600D01*
X150406000Y-71310400D02*
X146827800Y-67732200D01*
X183907400Y-71385400D02*
X184251600Y-71729600D01*
X180112900Y-57568600D02*
X182168800Y-57568600D01*
X189972200Y-41788600D02*
X189966600Y-41783000D01*
X184222900Y-57568600D02*
X182168800Y-57568600D01*
X180112900Y-53568600D02*
X182168800Y-53568600D01*
X146818600Y-65360800D02*
X146710400Y-65252600D01*
X184222900Y-53568600D02*
X182168800Y-53568600D01*
X182212200Y-71385400D02*
X183907400Y-71385400D01*
X146827800Y-41875000D02*
X146888200Y-41935400D01*
X154609800Y-57580800D02*
X156687800Y-57580800D01*
%TO.N,/SCL*%
X150088600Y-46863000D02*
X150088600Y-44424600D01*
X186390800Y-47568600D02*
X184222900Y-47568600D01*
X186994800Y-46964600D02*
X186390800Y-47568600D01*
X152577800Y-47580800D02*
X150806400Y-47580800D01*
X150806400Y-47580800D02*
X150088600Y-46863000D01*
X150088600Y-44424600D02*
X150723600Y-43789600D01*
X150723600Y-43789600D02*
X159054800Y-43789600D01*
X159308800Y-43535600D02*
X168173400Y-43535600D01*
X186994800Y-44780200D02*
X186994800Y-46964600D01*
X185750200Y-43535600D02*
X186994800Y-44780200D01*
X168173400Y-43535600D02*
X185750200Y-43535600D01*
X159054800Y-43789600D02*
X159308800Y-43535600D01*
%TO.N,/SDA*%
X174314600Y-47568600D02*
X180112900Y-47568600D01*
X168173400Y-46075600D02*
X172821600Y-46075600D01*
D18*
X180100700Y-47580800D02*
X180112900Y-47568600D01*
D17*
X161461200Y-47580800D02*
X162966400Y-46075600D01*
X162966400Y-46075600D02*
X168173400Y-46075600D01*
X172821600Y-46075600D02*
X174314600Y-47568600D01*
X156687800Y-47580800D02*
X161461200Y-47580800D01*
%TO.N,/A2*%
X188061600Y-42621200D02*
X188061600Y-44348400D01*
X152577800Y-49580800D02*
X150977600Y-49580800D01*
X188061600Y-44348400D02*
X188874400Y-45161200D01*
X186436000Y-40995600D02*
X188061600Y-42621200D01*
X168173400Y-40995600D02*
X186436000Y-40995600D01*
X187616600Y-49568600D02*
X184222900Y-49568600D01*
X148894800Y-43713400D02*
X150820200Y-41788000D01*
X188874400Y-45161200D02*
X188849000Y-45186600D01*
X162814000Y-40995600D02*
X168173400Y-40995600D01*
X188849000Y-48336200D02*
X187616600Y-49568600D01*
X150820200Y-41788000D02*
X162021600Y-41788000D01*
X148894800Y-47498000D02*
X148894800Y-43713400D01*
X150977600Y-49580800D02*
X148894800Y-47498000D01*
X162021600Y-41788000D02*
X162814000Y-40995600D01*
X188849000Y-45186600D02*
X188849000Y-48336200D01*
%TO.N,/PLUG*%
X172567600Y-48615600D02*
X173520600Y-49568600D01*
X178112200Y-69785400D02*
X182212200Y-69785400D01*
X191795400Y-67919600D02*
X191795400Y-54203600D01*
X166243000Y-48615600D02*
X165277800Y-49580800D01*
X168173400Y-48615600D02*
X172567600Y-48615600D01*
X168173400Y-48615600D02*
X166243000Y-48615600D01*
X165277800Y-49580800D02*
X156687800Y-49580800D01*
D18*
X156700000Y-49568600D02*
X156687800Y-49580800D01*
D17*
X182212200Y-69785400D02*
X189929600Y-69785400D01*
X173520600Y-49568600D02*
X180112900Y-49568600D01*
X189929600Y-69785400D02*
X191795400Y-67919600D01*
X191795400Y-54203600D02*
X188671200Y-51079400D01*
%TO.N,/A0*%
X188264800Y-63068200D02*
X186690000Y-64643000D01*
X165455600Y-61315600D02*
X168173400Y-61315600D01*
X161975800Y-64795400D02*
X165455600Y-61315600D01*
X152577800Y-51580800D02*
X150628600Y-51580800D01*
X148691600Y-53517800D02*
X148691600Y-63119000D01*
X150628600Y-51580800D02*
X148691600Y-53517800D01*
X184222900Y-51568600D02*
X186366400Y-51568600D01*
X175590200Y-64643000D02*
X172262800Y-61315600D01*
X188264800Y-53467000D02*
X188264800Y-63068200D01*
X186366400Y-51568600D02*
X188264800Y-53467000D01*
X148691600Y-63119000D02*
X150368000Y-64795400D01*
X150368000Y-64795400D02*
X161975800Y-64795400D01*
X172262800Y-61315600D02*
X168173400Y-61315600D01*
X186690000Y-64643000D02*
X175590200Y-64643000D01*
%TO.N,/A1*%
X171069000Y-51155600D02*
X171482000Y-51568600D01*
X156687800Y-51580800D02*
X167748200Y-51580800D01*
X168173400Y-51155600D02*
X171069000Y-51155600D01*
D18*
X180100700Y-51580800D02*
X180112900Y-51568600D01*
D17*
X171482000Y-51568600D02*
X180112900Y-51568600D01*
X167748200Y-51580800D02*
X168173400Y-51155600D01*
%TO.N,/RX*%
X186791600Y-56210200D02*
X186791600Y-62484000D01*
X186150000Y-55568600D02*
X186791600Y-56210200D01*
X150749000Y-63296800D02*
X160858200Y-63296800D01*
X150540200Y-55580800D02*
X150114000Y-56007000D01*
X160858200Y-63296800D02*
X165379400Y-58775600D01*
X186105800Y-63169800D02*
X176250600Y-63169800D01*
X165379400Y-58775600D02*
X168173400Y-58775600D01*
X150114000Y-56007000D02*
X150114000Y-62661800D01*
X186791600Y-62484000D02*
X186105800Y-63169800D01*
X150114000Y-62661800D02*
X150749000Y-63296800D01*
X171856400Y-58775600D02*
X168173400Y-58775600D01*
X152577800Y-55580800D02*
X150540200Y-55580800D01*
X184222900Y-55568600D02*
X186150000Y-55568600D01*
X176250600Y-63169800D02*
X171856400Y-58775600D01*
D18*
%TO.N,/TX*%
X180100700Y-55580800D02*
X180112900Y-55568600D01*
D17*
X156687800Y-55580800D02*
X162097200Y-55580800D01*
X163982400Y-53695600D02*
X168173400Y-53695600D01*
X171881800Y-53695600D02*
X173754800Y-55568600D01*
X168173400Y-53695600D02*
X171881800Y-53695600D01*
X162097200Y-55580800D02*
X163982400Y-53695600D01*
X173754800Y-55568600D02*
X180112900Y-55568600D01*
%TD*%
M02*
