M48
; DRILL file {KiCad 7.0.2} date Sun Dec 17 17:40:24 2023
; FORMAT={-:-/ absolute / metric / decimal}
; #@! TF.CreationDate,2023-12-17T17:40:24-05:00
; #@! TF.GenerationSoftware,Kicad,Pcbnew,7.0.2
; #@! TF.FileFunction,Plated,1,2,PTH
FMAT,2
METRIC
; #@! TA.AperFunction,Plated,PTH,ViaDrill
T1C0.400
; #@! TA.AperFunction,Plated,PTH,ComponentDrill
T2C1.000
%
G90
G05
T1
X146.71Y-65.253
X146.888Y-41.935
X151.689Y-59.563
X152.857Y-66.497
X154.61Y-57.581
X154.635Y-45.581
X154.635Y-53.581
X155.778Y-59.588
X156.718Y-67.666
X181.051Y-49.555
X182.169Y-45.569
X182.169Y-53.569
X182.169Y-57.569
X183.921Y-66.294
X184.252Y-71.73
X185.166Y-59.563
X188.671Y-51.079
X189.967Y-41.783
X189.992Y-65.329
T2
X168.173Y-40.996
X168.173Y-43.536
X168.173Y-46.076
X168.173Y-48.616
X168.173Y-51.156
X168.173Y-53.696
X168.173Y-56.236
X168.173Y-58.776
X168.173Y-61.316
X168.173Y-63.856
X168.173Y-66.396
T0
M30
