%TF.GenerationSoftware,KiCad,Pcbnew,7.0.2*%
%TF.CreationDate,2023-12-17T17:40:19-05:00*%
%TF.ProjectId,AntSniffer,416e7453-6e69-4666-9665-722e6b696361,rev?*%
%TF.SameCoordinates,Original*%
%TF.FileFunction,Copper,L2,Bot*%
%TF.FilePolarity,Positive*%
%FSLAX46Y46*%
G04 Gerber Fmt 4.6, Leading zero omitted, Abs format (unit mm)*
G04 Created by KiCad (PCBNEW 7.0.2) date 2023-12-17 17:40:19*
%MOMM*%
%LPD*%
G01*
G04 APERTURE LIST*
%TA.AperFunction,ComponentPad*%
%ADD10R,1.700000X1.700000*%
%TD*%
%TA.AperFunction,ComponentPad*%
%ADD11O,1.700000X1.700000*%
%TD*%
%TA.AperFunction,ViaPad*%
%ADD12C,0.800000*%
%TD*%
%TA.AperFunction,Conductor*%
%ADD13C,0.750000*%
%TD*%
G04 APERTURE END LIST*
D10*
%TO.P,J1,1,Pin_1*%
%TO.N,GND*%
X168173400Y-66395600D03*
D11*
%TO.P,J1,2,Pin_2*%
%TO.N,/3V3*%
X168173400Y-63855600D03*
%TO.P,J1,3,Pin_3*%
%TO.N,/A0*%
X168173400Y-61315600D03*
%TO.P,J1,4,Pin_4*%
%TO.N,/RX*%
X168173400Y-58775600D03*
%TO.P,J1,5,Pin_5*%
%TO.N,/RST*%
X168173400Y-56235600D03*
%TO.P,J1,6,Pin_6*%
%TO.N,/TX*%
X168173400Y-53695600D03*
%TO.P,J1,7,Pin_7*%
%TO.N,/A1*%
X168173400Y-51155600D03*
%TO.P,J1,8,Pin_8*%
%TO.N,/PLUG*%
X168173400Y-48615600D03*
%TO.P,J1,9,Pin_9*%
%TO.N,/SDA*%
X168173400Y-46075600D03*
%TO.P,J1,10,Pin_10*%
%TO.N,/SCL*%
X168173400Y-43535600D03*
%TO.P,J1,11,Pin_11*%
%TO.N,/A2*%
X168173400Y-40995600D03*
%TD*%
D12*
%TO.N,/RST*%
X155778200Y-59588400D03*
X156718000Y-67665600D03*
%TO.N,/3V3*%
X152857200Y-66497200D03*
X151688800Y-59563000D03*
X185166000Y-59563000D03*
X183921400Y-66294000D03*
%TO.N,GND*%
X146710400Y-65252600D03*
X182168800Y-57568600D03*
X154609800Y-57580800D03*
X189966600Y-41783000D03*
X154635200Y-53580800D03*
X146888200Y-41935400D03*
X182168800Y-53568600D03*
X182168800Y-45568600D03*
X184251600Y-71729600D03*
X189992000Y-65328800D03*
X154635200Y-45580800D03*
%TO.N,/PLUG*%
X188671200Y-51079400D03*
X181051200Y-49555400D03*
%TD*%
D13*
%TO.N,/RST*%
X155778200Y-59588400D02*
X155778200Y-66725800D01*
X155778200Y-66725800D02*
X156718000Y-67665600D01*
%TO.N,/3V3*%
X183921400Y-66294000D02*
X183921400Y-60807600D01*
X152857200Y-66497200D02*
X152857200Y-60731400D01*
X152857200Y-60731400D02*
X151688800Y-59563000D01*
X183921400Y-60807600D02*
X185166000Y-59563000D01*
%TO.N,/PLUG*%
X187147200Y-49555400D02*
X188671200Y-51079400D01*
X181051200Y-49555400D02*
X187147200Y-49555400D01*
%TD*%
%TA.AperFunction,Conductor*%
%TO.N,GND*%
G36*
X193236539Y-38450385D02*
G01*
X193282294Y-38503189D01*
X193293500Y-38554700D01*
X193293499Y-39146712D01*
X193269874Y-73002187D01*
X193250143Y-73069212D01*
X193197307Y-73114930D01*
X193145874Y-73126100D01*
X143609100Y-73126100D01*
X143542061Y-73106415D01*
X143496306Y-73053611D01*
X143485100Y-73002100D01*
X143485100Y-59562999D01*
X150783340Y-59562999D01*
X150803126Y-59751257D01*
X150861620Y-59931284D01*
X150956266Y-60095216D01*
X151082929Y-60235888D01*
X151223556Y-60338059D01*
X151238352Y-60350696D01*
X151600040Y-60712384D01*
X151945381Y-61057724D01*
X151978866Y-61119047D01*
X151981700Y-61145405D01*
X151981700Y-66257992D01*
X151975632Y-66296308D01*
X151971526Y-66308943D01*
X151951740Y-66497200D01*
X151971526Y-66685457D01*
X152030020Y-66865484D01*
X152124666Y-67029416D01*
X152251329Y-67170089D01*
X152404469Y-67281351D01*
X152577397Y-67358344D01*
X152762552Y-67397700D01*
X152762554Y-67397700D01*
X152951848Y-67397700D01*
X153075283Y-67371462D01*
X153137003Y-67358344D01*
X153309930Y-67281351D01*
X153429471Y-67194500D01*
X153463070Y-67170089D01*
X153496120Y-67133384D01*
X153589733Y-67029416D01*
X153684379Y-66865484D01*
X153742874Y-66685456D01*
X153762660Y-66497200D01*
X153742874Y-66308944D01*
X153738767Y-66296305D01*
X153732700Y-66257992D01*
X153732700Y-60772017D01*
X153733109Y-60761952D01*
X153737539Y-60707554D01*
X153736603Y-60700682D01*
X153726498Y-60626521D01*
X153726107Y-60623322D01*
X153717273Y-60542084D01*
X153717211Y-60541902D01*
X153711856Y-60519050D01*
X153711831Y-60518863D01*
X153683662Y-60442190D01*
X153682546Y-60439021D01*
X153656467Y-60361620D01*
X153656373Y-60361464D01*
X153646226Y-60340290D01*
X153646161Y-60340112D01*
X153602159Y-60271271D01*
X153600420Y-60268468D01*
X153558289Y-60198446D01*
X153558156Y-60198306D01*
X153543703Y-60179817D01*
X153543600Y-60179656D01*
X153485858Y-60121914D01*
X153483516Y-60119508D01*
X153427330Y-60060193D01*
X153427170Y-60060085D01*
X153409077Y-60045133D01*
X152952344Y-59588400D01*
X154872740Y-59588400D01*
X154892526Y-59776657D01*
X154896631Y-59789289D01*
X154902700Y-59827607D01*
X154902700Y-66685179D01*
X154902291Y-66695242D01*
X154897861Y-66749649D01*
X154908888Y-66830590D01*
X154909296Y-66833920D01*
X154918127Y-66915115D01*
X154918190Y-66915302D01*
X154923542Y-66938138D01*
X154923569Y-66938338D01*
X154951740Y-67015020D01*
X154952855Y-67018186D01*
X154978933Y-67095581D01*
X154979031Y-67095744D01*
X154989170Y-67116902D01*
X154989237Y-67117085D01*
X155033246Y-67185939D01*
X155035015Y-67188791D01*
X155077110Y-67258753D01*
X155077241Y-67258891D01*
X155091694Y-67277379D01*
X155091800Y-67277544D01*
X155149595Y-67335339D01*
X155151902Y-67337710D01*
X155208068Y-67397005D01*
X155208071Y-67397007D01*
X155208224Y-67397111D01*
X155226321Y-67412065D01*
X155937579Y-68123323D01*
X155957285Y-68149004D01*
X155985466Y-68197816D01*
X156112129Y-68338489D01*
X156265269Y-68449751D01*
X156438197Y-68526744D01*
X156623352Y-68566100D01*
X156623354Y-68566100D01*
X156812648Y-68566100D01*
X156936083Y-68539862D01*
X156997803Y-68526744D01*
X157170730Y-68449751D01*
X157323871Y-68338488D01*
X157450533Y-68197816D01*
X157545179Y-68033884D01*
X157603674Y-67853856D01*
X157623460Y-67665600D01*
X157603674Y-67477344D01*
X157558304Y-67337710D01*
X157545179Y-67297315D01*
X157450533Y-67133383D01*
X157323870Y-66992710D01*
X157183243Y-66890540D01*
X157168447Y-66877903D01*
X156690019Y-66399475D01*
X156656534Y-66338152D01*
X156653700Y-66311794D01*
X156653700Y-63855599D01*
X166817740Y-63855599D01*
X166838336Y-64091007D01*
X166883109Y-64258102D01*
X166899497Y-64319263D01*
X166999365Y-64533430D01*
X167134905Y-64727001D01*
X167134908Y-64727004D01*
X167257218Y-64849314D01*
X167290703Y-64910637D01*
X167285719Y-64980329D01*
X167243847Y-65036262D01*
X167212872Y-65053176D01*
X167081313Y-65102246D01*
X166966211Y-65188411D01*
X166880047Y-65303510D01*
X166829800Y-65438228D01*
X166823754Y-65494467D01*
X166823400Y-65501081D01*
X166823400Y-66145600D01*
X167739714Y-66145600D01*
X167713907Y-66185756D01*
X167673400Y-66323711D01*
X167673400Y-66467489D01*
X167713907Y-66605444D01*
X167739714Y-66645600D01*
X166823400Y-66645600D01*
X166823400Y-67290118D01*
X166823754Y-67296732D01*
X166829800Y-67352971D01*
X166880047Y-67487689D01*
X166966211Y-67602788D01*
X167081310Y-67688952D01*
X167216028Y-67739199D01*
X167272267Y-67745245D01*
X167278882Y-67745600D01*
X167923400Y-67745600D01*
X167923400Y-66831101D01*
X168031085Y-66880280D01*
X168137637Y-66895600D01*
X168209163Y-66895600D01*
X168315715Y-66880280D01*
X168423400Y-66831101D01*
X168423400Y-67745600D01*
X169067918Y-67745600D01*
X169074532Y-67745245D01*
X169130771Y-67739199D01*
X169265489Y-67688952D01*
X169380588Y-67602788D01*
X169466752Y-67487689D01*
X169516999Y-67352971D01*
X169523045Y-67296732D01*
X169523400Y-67290118D01*
X169523400Y-66645600D01*
X168607086Y-66645600D01*
X168632893Y-66605444D01*
X168673400Y-66467489D01*
X168673400Y-66323711D01*
X168664676Y-66294000D01*
X183015940Y-66294000D01*
X183023208Y-66363156D01*
X183035726Y-66482257D01*
X183094220Y-66662284D01*
X183188866Y-66826216D01*
X183315529Y-66966889D01*
X183468669Y-67078151D01*
X183641597Y-67155144D01*
X183826752Y-67194500D01*
X183826754Y-67194500D01*
X184016048Y-67194500D01*
X184139483Y-67168262D01*
X184201203Y-67155144D01*
X184374130Y-67078151D01*
X184527271Y-66966888D01*
X184653933Y-66826216D01*
X184748579Y-66662284D01*
X184807074Y-66482256D01*
X184826860Y-66294000D01*
X184807074Y-66105744D01*
X184802967Y-66093105D01*
X184796900Y-66054792D01*
X184796900Y-61221605D01*
X184816585Y-61154566D01*
X184833219Y-61133924D01*
X185205191Y-60761952D01*
X185616449Y-60350693D01*
X185631231Y-60338067D01*
X185771871Y-60235888D01*
X185898533Y-60095216D01*
X185993179Y-59931284D01*
X186051674Y-59751256D01*
X186071460Y-59563000D01*
X186051674Y-59374744D01*
X185993179Y-59194716D01*
X185993179Y-59194715D01*
X185898533Y-59030783D01*
X185771870Y-58890110D01*
X185618730Y-58778848D01*
X185445802Y-58701855D01*
X185260648Y-58662500D01*
X185260646Y-58662500D01*
X185071354Y-58662500D01*
X185071352Y-58662500D01*
X184886197Y-58701855D01*
X184713269Y-58778848D01*
X184560129Y-58890110D01*
X184433468Y-59030782D01*
X184405284Y-59079597D01*
X184385579Y-59105275D01*
X183331053Y-60159801D01*
X183323650Y-60166626D01*
X183282042Y-60201969D01*
X183232602Y-60267005D01*
X183230536Y-60269649D01*
X183179366Y-60333307D01*
X183179283Y-60333476D01*
X183166922Y-60353406D01*
X183166799Y-60353566D01*
X183132493Y-60427717D01*
X183131043Y-60430741D01*
X183094757Y-60503908D01*
X183094709Y-60504102D01*
X183086925Y-60526212D01*
X183086839Y-60526397D01*
X183069273Y-60606195D01*
X183068507Y-60609461D01*
X183048799Y-60688713D01*
X183048794Y-60688910D01*
X183045945Y-60712174D01*
X183045900Y-60712378D01*
X183045900Y-60794062D01*
X183045855Y-60797420D01*
X183043643Y-60879071D01*
X183043678Y-60879253D01*
X183045900Y-60902624D01*
X183045900Y-66054792D01*
X183039832Y-66093105D01*
X183035726Y-66105744D01*
X183015940Y-66294000D01*
X168664676Y-66294000D01*
X168632893Y-66185756D01*
X168607086Y-66145600D01*
X169523400Y-66145600D01*
X169523400Y-65501081D01*
X169523045Y-65494467D01*
X169516999Y-65438228D01*
X169466752Y-65303510D01*
X169380588Y-65188411D01*
X169265488Y-65102247D01*
X169133928Y-65053177D01*
X169077994Y-65011305D01*
X169053578Y-64945840D01*
X169068430Y-64877567D01*
X169089575Y-64849320D01*
X169211895Y-64727001D01*
X169347435Y-64533430D01*
X169447303Y-64319263D01*
X169508463Y-64091008D01*
X169529059Y-63855600D01*
X169508463Y-63620192D01*
X169447303Y-63391937D01*
X169347435Y-63177771D01*
X169211895Y-62984199D01*
X169044801Y-62817105D01*
X168859239Y-62687173D01*
X168815616Y-62632598D01*
X168808422Y-62563100D01*
X168839945Y-62500745D01*
X168859237Y-62484028D01*
X169044801Y-62354095D01*
X169211895Y-62187001D01*
X169347435Y-61993430D01*
X169447303Y-61779263D01*
X169508463Y-61551008D01*
X169529059Y-61315600D01*
X169508463Y-61080192D01*
X169447303Y-60851937D01*
X169347435Y-60637771D01*
X169211895Y-60444199D01*
X169044801Y-60277105D01*
X168859239Y-60147173D01*
X168815617Y-60092598D01*
X168808424Y-60023099D01*
X168839946Y-59960745D01*
X168859237Y-59944028D01*
X169044801Y-59814095D01*
X169211895Y-59647001D01*
X169347435Y-59453430D01*
X169447303Y-59239263D01*
X169508463Y-59011008D01*
X169529059Y-58775600D01*
X169508463Y-58540192D01*
X169447303Y-58311937D01*
X169347435Y-58097771D01*
X169211895Y-57904199D01*
X169044801Y-57737105D01*
X168859239Y-57607173D01*
X168815617Y-57552598D01*
X168808424Y-57483099D01*
X168839946Y-57420745D01*
X168859237Y-57404028D01*
X169044801Y-57274095D01*
X169211895Y-57107001D01*
X169347435Y-56913430D01*
X169447303Y-56699263D01*
X169508463Y-56471008D01*
X169529059Y-56235600D01*
X169508463Y-56000192D01*
X169447303Y-55771937D01*
X169347435Y-55557771D01*
X169211895Y-55364199D01*
X169044801Y-55197105D01*
X168859239Y-55067173D01*
X168815616Y-55012598D01*
X168808422Y-54943100D01*
X168839945Y-54880745D01*
X168859237Y-54864028D01*
X169044801Y-54734095D01*
X169211895Y-54567001D01*
X169347435Y-54373430D01*
X169447303Y-54159263D01*
X169508463Y-53931008D01*
X169529059Y-53695600D01*
X169508463Y-53460192D01*
X169447303Y-53231937D01*
X169347435Y-53017771D01*
X169211895Y-52824199D01*
X169044801Y-52657105D01*
X168859239Y-52527173D01*
X168815616Y-52472598D01*
X168808422Y-52403100D01*
X168839945Y-52340745D01*
X168859237Y-52324028D01*
X169044801Y-52194095D01*
X169211895Y-52027001D01*
X169347435Y-51833430D01*
X169447303Y-51619263D01*
X169508463Y-51391008D01*
X169529059Y-51155600D01*
X169508463Y-50920192D01*
X169447303Y-50691937D01*
X169347435Y-50477771D01*
X169211895Y-50284199D01*
X169044801Y-50117105D01*
X168859239Y-49987173D01*
X168815617Y-49932598D01*
X168808424Y-49863099D01*
X168839946Y-49800745D01*
X168859237Y-49784028D01*
X169044801Y-49654095D01*
X169143497Y-49555399D01*
X180145740Y-49555399D01*
X180165526Y-49743657D01*
X180224020Y-49923684D01*
X180318666Y-50087616D01*
X180445329Y-50228289D01*
X180598469Y-50339551D01*
X180771397Y-50416544D01*
X180956552Y-50455900D01*
X180956554Y-50455900D01*
X181145847Y-50455900D01*
X181250713Y-50433610D01*
X181276494Y-50430900D01*
X186733194Y-50430900D01*
X186800233Y-50450585D01*
X186820875Y-50467219D01*
X187890777Y-51537120D01*
X187910483Y-51562801D01*
X187938666Y-51611615D01*
X188065329Y-51752289D01*
X188218469Y-51863551D01*
X188391397Y-51940544D01*
X188576552Y-51979900D01*
X188576554Y-51979900D01*
X188765848Y-51979900D01*
X188889284Y-51953662D01*
X188951003Y-51940544D01*
X189123930Y-51863551D01*
X189277071Y-51752288D01*
X189403733Y-51611616D01*
X189498379Y-51447684D01*
X189556874Y-51267656D01*
X189576660Y-51079400D01*
X189556874Y-50891144D01*
X189498379Y-50711116D01*
X189498379Y-50711115D01*
X189403733Y-50547183D01*
X189277070Y-50406510D01*
X189136443Y-50304340D01*
X189121647Y-50291703D01*
X187794993Y-48965049D01*
X187788165Y-48957642D01*
X187752834Y-48916046D01*
X187752832Y-48916045D01*
X187752831Y-48916043D01*
X187687790Y-48866601D01*
X187685161Y-48864545D01*
X187668319Y-48851007D01*
X187621497Y-48813370D01*
X187621494Y-48813368D01*
X187621490Y-48813365D01*
X187621320Y-48813281D01*
X187601387Y-48800917D01*
X187601235Y-48800801D01*
X187527096Y-48766500D01*
X187524072Y-48765050D01*
X187450892Y-48728758D01*
X187450699Y-48728710D01*
X187428575Y-48720920D01*
X187428396Y-48720837D01*
X187348612Y-48703274D01*
X187345346Y-48702509D01*
X187266085Y-48682799D01*
X187265889Y-48682794D01*
X187242618Y-48679944D01*
X187242418Y-48679900D01*
X187242416Y-48679900D01*
X187160737Y-48679900D01*
X187157379Y-48679855D01*
X187075728Y-48677643D01*
X187075727Y-48677643D01*
X187075542Y-48677678D01*
X187052176Y-48679900D01*
X181276494Y-48679900D01*
X181250713Y-48677190D01*
X181145847Y-48654900D01*
X181145846Y-48654900D01*
X180956554Y-48654900D01*
X180956552Y-48654900D01*
X180771397Y-48694255D01*
X180598469Y-48771248D01*
X180445329Y-48882510D01*
X180318666Y-49023183D01*
X180224020Y-49187115D01*
X180165526Y-49367142D01*
X180145740Y-49555399D01*
X169143497Y-49555399D01*
X169211895Y-49487001D01*
X169347435Y-49293430D01*
X169447303Y-49079263D01*
X169508463Y-48851008D01*
X169529059Y-48615600D01*
X169508463Y-48380192D01*
X169447303Y-48151937D01*
X169347435Y-47937771D01*
X169211895Y-47744199D01*
X169044801Y-47577105D01*
X168859239Y-47447173D01*
X168815617Y-47392598D01*
X168808424Y-47323099D01*
X168839946Y-47260745D01*
X168859237Y-47244028D01*
X169044801Y-47114095D01*
X169211895Y-46947001D01*
X169347435Y-46753430D01*
X169447303Y-46539263D01*
X169508463Y-46311008D01*
X169529059Y-46075600D01*
X169508463Y-45840192D01*
X169447303Y-45611937D01*
X169347435Y-45397771D01*
X169211895Y-45204199D01*
X169044801Y-45037105D01*
X168859239Y-44907173D01*
X168815616Y-44852598D01*
X168808422Y-44783100D01*
X168839945Y-44720745D01*
X168859237Y-44704028D01*
X169044801Y-44574095D01*
X169211895Y-44407001D01*
X169347435Y-44213430D01*
X169447303Y-43999263D01*
X169508463Y-43771008D01*
X169529059Y-43535600D01*
X169508463Y-43300192D01*
X169447303Y-43071937D01*
X169347435Y-42857771D01*
X169211895Y-42664199D01*
X169044801Y-42497105D01*
X168859239Y-42367173D01*
X168815616Y-42312598D01*
X168808422Y-42243100D01*
X168839945Y-42180745D01*
X168859237Y-42164028D01*
X169044801Y-42034095D01*
X169211895Y-41867001D01*
X169347435Y-41673430D01*
X169447303Y-41459263D01*
X169508463Y-41231008D01*
X169529059Y-40995600D01*
X169508463Y-40760192D01*
X169447303Y-40531937D01*
X169347435Y-40317771D01*
X169211895Y-40124199D01*
X169044801Y-39957105D01*
X168851230Y-39821565D01*
X168637063Y-39721697D01*
X168575901Y-39705309D01*
X168408807Y-39660536D01*
X168173400Y-39639940D01*
X167937992Y-39660536D01*
X167709736Y-39721697D01*
X167495570Y-39821565D01*
X167301998Y-39957105D01*
X167134905Y-40124198D01*
X166999365Y-40317770D01*
X166899497Y-40531936D01*
X166838336Y-40760192D01*
X166817740Y-40995600D01*
X166838336Y-41231007D01*
X166883109Y-41398102D01*
X166899497Y-41459263D01*
X166999365Y-41673430D01*
X167134905Y-41867001D01*
X167301999Y-42034095D01*
X167487560Y-42164026D01*
X167531183Y-42218602D01*
X167538376Y-42288101D01*
X167506854Y-42350455D01*
X167487559Y-42367175D01*
X167301995Y-42497108D01*
X167134905Y-42664198D01*
X166999365Y-42857770D01*
X166899497Y-43071936D01*
X166838336Y-43300192D01*
X166817740Y-43535599D01*
X166838336Y-43771007D01*
X166883109Y-43938101D01*
X166899497Y-43999263D01*
X166999365Y-44213430D01*
X167134905Y-44407001D01*
X167301999Y-44574095D01*
X167487560Y-44704026D01*
X167531183Y-44758602D01*
X167538376Y-44828101D01*
X167506854Y-44890455D01*
X167487559Y-44907175D01*
X167301995Y-45037108D01*
X167134905Y-45204198D01*
X166999365Y-45397770D01*
X166899497Y-45611936D01*
X166838336Y-45840192D01*
X166817740Y-46075600D01*
X166838336Y-46311007D01*
X166883109Y-46478101D01*
X166899497Y-46539263D01*
X166999365Y-46753430D01*
X167134905Y-46947001D01*
X167301999Y-47114095D01*
X167487560Y-47244026D01*
X167531183Y-47298602D01*
X167538376Y-47368101D01*
X167506854Y-47430455D01*
X167487559Y-47447175D01*
X167301995Y-47577108D01*
X167134905Y-47744198D01*
X166999365Y-47937770D01*
X166899497Y-48151936D01*
X166838336Y-48380192D01*
X166817740Y-48615599D01*
X166838336Y-48851007D01*
X166868894Y-48965049D01*
X166899497Y-49079263D01*
X166999365Y-49293430D01*
X167134905Y-49487001D01*
X167301999Y-49654095D01*
X167487560Y-49784026D01*
X167531183Y-49838602D01*
X167538376Y-49908101D01*
X167506854Y-49970455D01*
X167487559Y-49987175D01*
X167301995Y-50117108D01*
X167134905Y-50284198D01*
X166999365Y-50477770D01*
X166899497Y-50691936D01*
X166838336Y-50920192D01*
X166817740Y-51155599D01*
X166838336Y-51391007D01*
X166853523Y-51447684D01*
X166899497Y-51619263D01*
X166999365Y-51833430D01*
X167134905Y-52027001D01*
X167301999Y-52194095D01*
X167487560Y-52324026D01*
X167531183Y-52378602D01*
X167538376Y-52448101D01*
X167506854Y-52510455D01*
X167487559Y-52527175D01*
X167301995Y-52657108D01*
X167134905Y-52824198D01*
X166999365Y-53017770D01*
X166899497Y-53231936D01*
X166838336Y-53460192D01*
X166817740Y-53695600D01*
X166838336Y-53931007D01*
X166883109Y-54098102D01*
X166899497Y-54159263D01*
X166999365Y-54373430D01*
X167134905Y-54567001D01*
X167301999Y-54734095D01*
X167487560Y-54864026D01*
X167531183Y-54918602D01*
X167538376Y-54988101D01*
X167506854Y-55050455D01*
X167487559Y-55067175D01*
X167301995Y-55197108D01*
X167134905Y-55364198D01*
X166999365Y-55557770D01*
X166899497Y-55771936D01*
X166838336Y-56000192D01*
X166817740Y-56235599D01*
X166838336Y-56471007D01*
X166883109Y-56638101D01*
X166899497Y-56699263D01*
X166999365Y-56913430D01*
X167134905Y-57107001D01*
X167301999Y-57274095D01*
X167487560Y-57404026D01*
X167531183Y-57458602D01*
X167538376Y-57528101D01*
X167506854Y-57590455D01*
X167487559Y-57607175D01*
X167301995Y-57737108D01*
X167134905Y-57904198D01*
X166999365Y-58097770D01*
X166899497Y-58311936D01*
X166838336Y-58540192D01*
X166817740Y-58775600D01*
X166838336Y-59011007D01*
X166856715Y-59079597D01*
X166899497Y-59239263D01*
X166999365Y-59453430D01*
X167134905Y-59647001D01*
X167301999Y-59814095D01*
X167487560Y-59944026D01*
X167531183Y-59998602D01*
X167538376Y-60068101D01*
X167506854Y-60130455D01*
X167487558Y-60147175D01*
X167312648Y-60269649D01*
X167301995Y-60277108D01*
X167134905Y-60444198D01*
X166999365Y-60637770D01*
X166899497Y-60851936D01*
X166838336Y-61080192D01*
X166817740Y-61315599D01*
X166838336Y-61551007D01*
X166883109Y-61718102D01*
X166899497Y-61779263D01*
X166999365Y-61993430D01*
X167134905Y-62187001D01*
X167301999Y-62354095D01*
X167487560Y-62484026D01*
X167531183Y-62538602D01*
X167538376Y-62608101D01*
X167506854Y-62670455D01*
X167487559Y-62687175D01*
X167301995Y-62817108D01*
X167134905Y-62984198D01*
X166999365Y-63177770D01*
X166899497Y-63391936D01*
X166838336Y-63620192D01*
X166817740Y-63855599D01*
X156653700Y-63855599D01*
X156653700Y-59827607D01*
X156659769Y-59789289D01*
X156663874Y-59776656D01*
X156683660Y-59588400D01*
X156663874Y-59400144D01*
X156633532Y-59306763D01*
X156605379Y-59220115D01*
X156510733Y-59056183D01*
X156384070Y-58915510D01*
X156230930Y-58804248D01*
X156058002Y-58727255D01*
X155872848Y-58687900D01*
X155872846Y-58687900D01*
X155683554Y-58687900D01*
X155683552Y-58687900D01*
X155498397Y-58727255D01*
X155325469Y-58804248D01*
X155172329Y-58915510D01*
X155045666Y-59056183D01*
X154951020Y-59220115D01*
X154892526Y-59400142D01*
X154872740Y-59588400D01*
X152952344Y-59588400D01*
X152469218Y-59105274D01*
X152449511Y-59079591D01*
X152421333Y-59030783D01*
X152294670Y-58890110D01*
X152141530Y-58778848D01*
X151968602Y-58701855D01*
X151783448Y-58662500D01*
X151783446Y-58662500D01*
X151594154Y-58662500D01*
X151594152Y-58662500D01*
X151408997Y-58701855D01*
X151236069Y-58778848D01*
X151082929Y-58890110D01*
X150956266Y-59030783D01*
X150861620Y-59194715D01*
X150803126Y-59374742D01*
X150783340Y-59562999D01*
X143485100Y-59562999D01*
X143485100Y-38554700D01*
X143504785Y-38487661D01*
X143557589Y-38441906D01*
X143609100Y-38430700D01*
X193169500Y-38430700D01*
X193236539Y-38450385D01*
G37*
%TD.AperFunction*%
%TD*%
M02*
