%TF.GenerationSoftware,KiCad,Pcbnew,7.0.2*%
%TF.CreationDate,2023-12-17T17:40:24-05:00*%
%TF.ProjectId,AntSniffer,416e7453-6e69-4666-9665-722e6b696361,rev?*%
%TF.SameCoordinates,Original*%
%TF.FileFunction,Drillmap*%
%TF.FilePolarity,Positive*%
%FSLAX45Y45*%
G04 Gerber Fmt 4.5, Leading zero omitted, Abs format (unit mm)*
G04 Created by KiCad (PCBNEW 7.0.2) date 2023-12-17 17:40:24*
%MOMM*%
%LPD*%
G01*
G04 APERTURE LIST*
%ADD10C,0.100000*%
%ADD11C,0.200000*%
G04 APERTURE END LIST*
D10*
X14348460Y-3843020D02*
X19329400Y-3843020D01*
X19329400Y-7312660D01*
X14348460Y-7312660D01*
X14348460Y-3843020D01*
D11*
X14591079Y-7630184D02*
X14591079Y-7430184D01*
X14591079Y-7430184D02*
X14638698Y-7430184D01*
X14638698Y-7430184D02*
X14667269Y-7439708D01*
X14667269Y-7439708D02*
X14686317Y-7458755D01*
X14686317Y-7458755D02*
X14695841Y-7477803D01*
X14695841Y-7477803D02*
X14705365Y-7515898D01*
X14705365Y-7515898D02*
X14705365Y-7544469D01*
X14705365Y-7544469D02*
X14695841Y-7582565D01*
X14695841Y-7582565D02*
X14686317Y-7601612D01*
X14686317Y-7601612D02*
X14667269Y-7620660D01*
X14667269Y-7620660D02*
X14638698Y-7630184D01*
X14638698Y-7630184D02*
X14591079Y-7630184D01*
X14791079Y-7630184D02*
X14791079Y-7496850D01*
X14791079Y-7534946D02*
X14800603Y-7515898D01*
X14800603Y-7515898D02*
X14810127Y-7506374D01*
X14810127Y-7506374D02*
X14829174Y-7496850D01*
X14829174Y-7496850D02*
X14848222Y-7496850D01*
X14914888Y-7630184D02*
X14914888Y-7496850D01*
X14914888Y-7430184D02*
X14905365Y-7439708D01*
X14905365Y-7439708D02*
X14914888Y-7449231D01*
X14914888Y-7449231D02*
X14924412Y-7439708D01*
X14924412Y-7439708D02*
X14914888Y-7430184D01*
X14914888Y-7430184D02*
X14914888Y-7449231D01*
X15038698Y-7630184D02*
X15019650Y-7620660D01*
X15019650Y-7620660D02*
X15010127Y-7601612D01*
X15010127Y-7601612D02*
X15010127Y-7430184D01*
X15143460Y-7630184D02*
X15124412Y-7620660D01*
X15124412Y-7620660D02*
X15114888Y-7601612D01*
X15114888Y-7601612D02*
X15114888Y-7430184D01*
X15372031Y-7630184D02*
X15372031Y-7430184D01*
X15372031Y-7430184D02*
X15438698Y-7573041D01*
X15438698Y-7573041D02*
X15505365Y-7430184D01*
X15505365Y-7430184D02*
X15505365Y-7630184D01*
X15686317Y-7630184D02*
X15686317Y-7525422D01*
X15686317Y-7525422D02*
X15676793Y-7506374D01*
X15676793Y-7506374D02*
X15657746Y-7496850D01*
X15657746Y-7496850D02*
X15619650Y-7496850D01*
X15619650Y-7496850D02*
X15600603Y-7506374D01*
X15686317Y-7620660D02*
X15667269Y-7630184D01*
X15667269Y-7630184D02*
X15619650Y-7630184D01*
X15619650Y-7630184D02*
X15600603Y-7620660D01*
X15600603Y-7620660D02*
X15591079Y-7601612D01*
X15591079Y-7601612D02*
X15591079Y-7582565D01*
X15591079Y-7582565D02*
X15600603Y-7563517D01*
X15600603Y-7563517D02*
X15619650Y-7553993D01*
X15619650Y-7553993D02*
X15667269Y-7553993D01*
X15667269Y-7553993D02*
X15686317Y-7544469D01*
X15781555Y-7496850D02*
X15781555Y-7696850D01*
X15781555Y-7506374D02*
X15800603Y-7496850D01*
X15800603Y-7496850D02*
X15838698Y-7496850D01*
X15838698Y-7496850D02*
X15857746Y-7506374D01*
X15857746Y-7506374D02*
X15867269Y-7515898D01*
X15867269Y-7515898D02*
X15876793Y-7534946D01*
X15876793Y-7534946D02*
X15876793Y-7592088D01*
X15876793Y-7592088D02*
X15867269Y-7611136D01*
X15867269Y-7611136D02*
X15857746Y-7620660D01*
X15857746Y-7620660D02*
X15838698Y-7630184D01*
X15838698Y-7630184D02*
X15800603Y-7630184D01*
X15800603Y-7630184D02*
X15781555Y-7620660D01*
X15962508Y-7611136D02*
X15972031Y-7620660D01*
X15972031Y-7620660D02*
X15962508Y-7630184D01*
X15962508Y-7630184D02*
X15952984Y-7620660D01*
X15952984Y-7620660D02*
X15962508Y-7611136D01*
X15962508Y-7611136D02*
X15962508Y-7630184D01*
X15962508Y-7506374D02*
X15972031Y-7515898D01*
X15972031Y-7515898D02*
X15962508Y-7525422D01*
X15962508Y-7525422D02*
X15952984Y-7515898D01*
X15952984Y-7515898D02*
X15962508Y-7506374D01*
X15962508Y-7506374D02*
X15962508Y-7525422D01*
M02*
